<svg width="169" height="32" viewBox="0 0 169 32" fill="none" xmlns="http://www.w3.org/2000/svg">
<path d="M32.3473 13.8962C29.8253 13.5521 27.657 13.7537 25.8302 14.2104C23.4573 14.8039 21.7401 15.8141 20.7403 16.4018L20.6271 16.4685C20.304 16.6581 20.0111 16.8357 19.7415 16.9995C18.2213 17.9219 17.4183 18.4092 16.0113 18.1162C15.3996 17.9888 14.9877 17.7219 14.3241 16.8086C13.9852 16.3422 13.6368 15.7854 13.1794 15.0531L13.0838 14.9005C12.5931 14.1153 12.011 13.1922 11.284 12.162C9.39957 9.49121 6.7285 8.63646 4.11711 8.54868C3.36528 8.52343 2.59225 8.56142 1.81921 8.63801C4.52423 3.50599 9.96844 0 16.2439 0C24.4905 0 31.3015 6.05393 32.3473 13.8962Z" fill="#FCCE07"/>
<path d="M32.3308 18.2125C31.237 26.002 24.4508 32 16.2424 32C7.27198 32 0 24.8365 0 16C0 15.0324 0.087187 14.0848 0.254181 13.1646C1.59823 12.9321 2.82532 12.7744 3.96795 12.8128C5.66397 12.8698 6.84675 13.3511 7.72579 14.597C8.38054 15.5249 8.91047 16.3639 9.39466 17.1381L9.51293 17.3275C9.94245 18.0153 10.3691 18.6985 10.8004 19.292C11.8031 20.6719 13.0386 21.8586 15.1146 22.2906C18.3604 22.9662 20.7448 21.4548 22.2429 20.5054C22.4616 20.3668 22.6614 20.2401 22.8422 20.134L22.909 20.0948C23.8774 19.5262 25.1404 18.7845 26.8947 18.3458C28.3119 17.9914 30.105 17.8243 32.3308 18.2125Z" fill="#F7A04E"/>
<path d="M32.3326 18.2124C32.434 17.4891 32.4866 16.7505 32.4866 15.9998C32.4866 15.2867 32.4393 14.5844 32.3476 13.8959C29.8255 13.5519 27.6572 13.7535 25.8304 14.2103C23.4575 14.8037 21.7402 15.8138 20.7404 16.4017L20.6273 16.4684C20.3042 16.6579 20.0112 16.8355 19.7417 16.9992C18.2216 17.9216 17.4184 18.4089 16.0115 18.116C15.3997 17.9886 14.9878 17.7216 14.3243 16.8084C13.9854 16.342 13.637 15.7853 13.1796 15.053L13.084 14.9004C12.5932 14.1152 12.0111 13.192 11.2842 12.1618C9.39973 9.49095 6.72866 8.63621 4.11727 8.54854C3.36544 8.52329 2.59241 8.56129 1.8195 8.63787C1.08136 10.0384 0.547266 11.5598 0.25592 13.1643C1.59997 12.932 2.82705 12.7742 3.96969 12.8126C5.66559 12.8695 6.84837 13.3509 7.72753 14.5968C8.38228 15.5248 8.91221 16.3637 9.39627 17.138L9.51455 17.3274C9.94406 18.015 10.3708 18.6984 10.8021 19.2919C11.8048 20.6717 13.0404 21.8585 15.1163 22.2905C18.3621 22.966 20.7465 21.4547 22.2447 20.5052C22.4632 20.3665 22.6631 20.24 22.8438 20.1339L22.9107 20.0946C23.879 19.5261 25.1421 18.7844 26.8964 18.3457C28.3135 17.9912 30.1067 17.8241 32.3326 18.2124Z" fill="white"/>
<path d="M50.24 17.32L48.32 17.3C47.7333 17.3 47.2867 17.3067 46.98 17.32C46.78 19.0933 46.6733 20.6133 46.66 21.88C49.7933 21.88 52.12 21.6267 53.64 21.12C53.52 22.1067 53.22 22.8733 52.74 23.42C52.26 23.9667 51.66 24.24 50.94 24.24C50.7267 24.24 50.1267 24.18 49.14 24.06C48.1667 23.9533 47.1333 23.9 46.04 23.9C44.9467 23.9 43.88 24.0133 42.84 24.24C42.9867 23.6133 43.3067 23.1 43.8 22.7V22.62C43.8 21.9 43.9867 20.26 44.36 17.7C44.0267 17.82 43.74 17.9267 43.5 18.02C43.4733 17.7267 43.46 17.5067 43.46 17.36C43.46 16.4667 43.8533 15.9 44.64 15.66C44.88 13.9 45.04 12.3133 45.12 10.9C44.6267 10.8733 44.3133 10.76 44.18 10.56C44.0467 10.36 43.98 9.96667 43.98 9.38C44.02 8.78 44.0733 8.38667 44.14 8.2C45.6333 8.4 47.28 8.5 49.08 8.5C50.8933 8.5 52.64 8.34 54.32 8.02C54.1333 9.42 53.28 10.26 51.76 10.54C50.8667 10.7133 49.54 10.8267 47.78 10.88C47.7667 11.0267 47.5733 12.5733 47.2 15.52C48 15.5467 48.5533 15.56 48.86 15.56C50.1267 15.56 51.0267 15.34 51.56 14.9C51.5867 15.1667 51.6 15.3667 51.6 15.5C51.6 16.7133 51.1467 17.32 50.24 17.32ZM66.0372 24.66C64.9439 24.66 63.9639 24.0867 63.0972 22.94C62.2305 21.7933 61.3572 20.1733 60.4772 18.08C58.6505 20.2 57.3572 22.38 56.5972 24.62C55.5039 23.9133 54.9505 23.1733 54.9372 22.4C54.9239 21.6267 55.3172 20.7467 56.1172 19.76C56.9172 18.7733 58.0972 17.5333 59.6572 16.04C59.5772 15.8267 59.4305 15.4533 59.2172 14.92C59.0039 14.3867 58.8172 13.92 58.6572 13.52C58.4972 13.1067 58.3772 12.82 58.2972 12.66C58.2305 12.5 58.1239 12.2467 57.9772 11.9C57.8305 11.5533 57.7105 11.2933 57.6172 11.12C57.5239 10.9333 57.4039 10.6933 57.2572 10.4C57.1239 10.1067 57.0039 9.86667 56.8972 9.68C56.5639 9.13333 56.3039 8.73333 56.1172 8.48C56.8772 8.12 57.4972 7.94 57.9772 7.94C58.4572 7.94 58.8372 8.06667 59.1172 8.32C59.4105 8.56 59.7239 9.04667 60.0572 9.78C60.4039 10.5 60.6505 11.0467 60.7972 11.42C60.9439 11.7933 61.1305 12.3133 61.3572 12.98C61.5972 13.6333 61.7305 13.9933 61.7572 14.06C63.1039 12.74 64.1572 11.58 64.9172 10.58C65.6772 9.58 66.0772 8.66 66.1172 7.82C66.6505 8.04667 67.0505 8.34 67.3172 8.7C67.5839 9.06 67.7172 9.40667 67.7172 9.74C67.7172 10.06 67.6305 10.4067 67.4572 10.78C67.2972 11.14 67.0172 11.54 66.6172 11.98C66.2305 12.42 65.8639 12.8067 65.5172 13.14C65.1839 13.4733 64.6905 13.94 64.0372 14.54C63.3839 15.14 62.8639 15.6267 62.4772 16C63.9705 19.8667 65.5839 22.72 67.3172 24.56C66.9705 24.6267 66.5439 24.66 66.0372 24.66ZM68.5952 8.38C70.0352 8.62 71.7618 8.74 73.7752 8.74C75.7885 8.74 77.8952 8.5 80.0952 8.02C79.8685 9.71333 79.0085 10.64 77.5152 10.8C77.0485 10.8667 76.3285 10.9333 75.3552 11C75.3285 11.3867 75.1085 13.08 74.6952 16.08C74.2818 19.0667 74.0752 21.1267 74.0752 22.26C74.0752 23.3933 74.1685 24.18 74.3552 24.62C73.2218 24.3267 72.4485 23.94 72.0352 23.46C71.6218 22.9667 71.4152 22.36 71.4152 21.64C71.4152 20.92 71.5818 19.36 71.9152 16.96C72.2618 14.5467 72.4685 12.6067 72.5352 11.14C71.4552 11.1933 70.3952 11.22 69.3552 11.22C68.7418 11.22 68.4352 10.6733 68.4352 9.58C68.4618 9.06 68.5152 8.66 68.5952 8.38ZM82.5345 24.34C81.7745 24.34 81.2279 24.2067 80.8945 23.94C80.5612 23.6733 80.3945 23.2267 80.3945 22.6C80.3945 21.9733 80.6145 20.08 81.0545 16.92C81.5079 13.7467 81.7345 11.4867 81.7345 10.14C81.7345 8.78 81.6412 7.89333 81.4545 7.48C82.8012 7.58667 83.6945 8.11333 84.1345 9.06C85.0945 8.52667 86.1812 8.26 87.3945 8.26C88.6212 8.26 89.6212 8.61333 90.3945 9.32C91.1812 10.0133 91.5745 10.82 91.5745 11.74C91.5745 12.66 91.2612 13.58 90.6345 14.5C90.0079 15.4067 89.0745 16.0933 87.8345 16.56L88.0945 17.34C88.5745 18.8333 89.2679 20.3133 90.1745 21.78C91.0812 23.2333 91.8212 24.2267 92.3945 24.76C91.9012 24.8933 91.4079 24.96 90.9145 24.96C90.4345 24.96 89.9479 24.8 89.4545 24.48C88.9612 24.1733 88.5479 23.8333 88.2145 23.46C87.8945 23.0867 87.5345 22.4933 87.1345 21.68C86.7345 20.8667 86.4479 20.2333 86.2745 19.78C86.1012 19.3267 85.9079 18.8267 85.6945 18.28C85.4945 17.7333 85.3879 17.44 85.3745 17.4C85.3612 17.36 85.3412 17.3133 85.3145 17.26C85.2879 17.1933 85.2679 17.1333 85.2545 17.08C84.9612 17.08 84.6745 17.08 84.3945 17.08L84.3345 16.16C86.0279 16.0933 87.2879 15.4867 88.1145 14.34C88.5679 13.7 88.7945 13.0467 88.7945 12.38C88.7945 12.1267 88.7679 11.88 88.7145 11.64C88.4879 10.7733 87.9479 10.2333 87.0945 10.02C86.8545 9.95333 86.5212 9.92 86.0945 9.92C85.6679 9.92 85.1012 10.06 84.3945 10.34C84.3945 10.8467 84.2012 12.5067 83.8145 15.32C83.4412 18.12 83.2545 20.46 83.2545 22.34C83.2545 23.18 83.2945 23.8333 83.3745 24.3C82.9479 24.3267 82.6679 24.34 82.5345 24.34ZM91.9906 23.12C91.9906 22.8667 92.3773 21.92 93.1506 20.28C93.924 18.64 94.7973 16.78 95.7706 14.7C96.7573 12.6067 97.424 11.0867 97.7706 10.14L98.1306 9.16C98.024 8.97333 97.764 8.63333 97.3506 8.14C97.8306 7.98 98.244 7.9 98.5906 7.9C98.9506 7.9 99.244 7.92667 99.4706 7.98C99.7106 8.03333 99.9173 8.12667 100.091 8.26C100.277 8.38 100.437 8.50667 100.571 8.64C100.717 8.77333 100.851 8.97333 100.971 9.24C101.091 9.49333 101.191 9.72667 101.271 9.94C101.351 10.14 101.437 10.4267 101.531 10.8C101.637 11.1733 101.717 11.5 101.771 11.78C101.837 12.0467 101.917 12.4267 102.011 12.92C102.117 13.4 102.224 13.8667 102.331 14.32C102.437 14.7733 102.624 15.64 102.891 16.92C103.157 18.1867 103.364 19.14 103.511 19.78C103.671 20.4067 103.891 21.1133 104.171 21.9C104.464 22.6867 104.771 23.3067 105.091 23.76C104.317 24.1333 103.691 24.32 103.211 24.32C102.731 24.32 102.377 24.2 102.151 23.96C101.924 23.7067 101.731 23.3333 101.571 22.84C101.411 22.3333 101.097 20.9867 100.631 18.8C100.324 19.0667 99.824 19.2133 99.1306 19.24L95.7106 19.36C94.8973 21.3467 94.2973 23.1133 93.9106 24.66C92.6306 24.2067 91.9906 23.6933 91.9906 23.12ZM99.0506 11.82C98.864 12.2467 98.4506 13.16 97.8106 14.56C97.184 15.9467 96.6973 17.0533 96.3506 17.88H100.451C99.824 15 99.3573 12.98 99.0506 11.82Z" fill="black"/>
<path d="M112.443 8.38C113.883 8.62 115.609 8.74 117.623 8.74C119.636 8.74 121.743 8.5 123.943 8.02C123.716 9.71333 122.856 10.64 121.363 10.8C120.896 10.8667 120.176 10.9333 119.203 11C119.176 11.3867 118.956 13.08 118.543 16.08C118.129 19.0667 117.923 21.1267 117.923 22.26C117.923 23.3933 118.016 24.18 118.203 24.62C117.069 24.3267 116.296 23.94 115.883 23.46C115.469 22.9667 115.263 22.36 115.263 21.64C115.263 20.92 115.429 19.36 115.763 16.96C116.109 14.5467 116.316 12.6067 116.383 11.14C115.303 11.1933 114.243 11.22 113.203 11.22C112.589 11.22 112.283 10.6733 112.283 9.58C112.309 9.06 112.363 8.66 112.443 8.38ZM134.762 15C134.762 13.1333 134.502 11.78 133.982 10.94C133.476 10.1 132.776 9.68 131.882 9.68C131.002 9.68 130.162 10.0733 129.362 10.86C128.576 11.6333 127.956 12.6133 127.502 13.8C127.062 14.9867 126.842 16.1867 126.842 17.4C126.842 19.0667 127.116 20.4333 127.662 21.5C128.222 22.5667 129.062 23.1 130.182 23.1C131.116 23.1 131.936 22.6933 132.642 21.88C133.362 21.0533 133.896 20.0333 134.242 18.82C134.589 17.6067 134.762 16.3333 134.762 15ZM135.122 22.32C134.522 22.9733 133.769 23.5 132.862 23.9C131.969 24.3 130.989 24.5 129.922 24.5C128.856 24.5 127.916 24.26 127.102 23.78C126.302 23.3 125.662 22.66 125.182 21.86C124.222 20.26 123.742 18.3933 123.742 16.26C123.742 14.1267 124.269 12.2267 125.322 10.56C126.389 8.89333 127.809 7.84 129.582 7.4C129.689 7.42667 129.789 7.48 129.882 7.56C129.989 7.64 130.049 7.72667 130.062 7.82C128.342 9.07333 127.302 10.78 126.942 12.94C127.502 11.3667 128.342 10.14 129.462 9.26C130.596 8.36667 131.809 7.92 133.102 7.92C134.396 7.92 135.496 8.48 136.402 9.6C137.322 10.7067 137.782 12.3133 137.782 14.42C137.782 16.4867 137.396 18.3467 136.622 20C136.222 20.88 135.722 21.6533 135.122 22.32ZM152.257 8.94C152.364 9.15333 152.424 9.35333 152.437 9.54C152.464 9.72667 152.477 10.0667 152.477 10.56C152.477 11.0533 152.257 12.8067 151.817 15.82C151.377 18.8333 151.157 20.9467 151.157 22.16C151.157 23.36 151.251 24.18 151.437 24.62C150.304 24.3267 149.531 23.94 149.117 23.46C148.704 22.9667 148.497 22.2867 148.497 21.42C148.497 21.1533 148.504 20.9467 148.517 20.8C147.304 23.2 145.644 24.4 143.537 24.4C142.417 24.4 141.577 24.02 141.017 23.26C140.457 22.4867 140.177 21.2667 140.177 19.6C140.177 18.6533 140.324 16.9467 140.617 14.48C140.924 12.0133 141.077 10.4133 141.077 9.68C141.077 8.93333 141.004 8.36 140.857 7.96C141.964 8.24 142.724 8.61333 143.137 9.08C143.564 9.53333 143.777 10.18 143.777 11.02C143.777 11.8467 143.644 13.1733 143.377 15C143.111 16.8133 142.977 18.28 142.977 19.4C142.977 20.5067 143.137 21.2933 143.457 21.76C143.777 22.2267 144.224 22.46 144.797 22.46C145.477 22.46 146.137 22.16 146.777 21.56C148.084 20.32 148.937 17.94 149.337 14.42V14.38C149.551 12.5267 149.657 11.1667 149.657 10.3C149.657 9.43333 149.631 8.65333 149.577 7.96C150.591 8.01333 151.331 8.17333 151.797 8.44C151.997 8.54667 152.151 8.71333 152.257 8.94ZM157.515 24.34C156.755 24.34 156.208 24.2067 155.875 23.94C155.542 23.6733 155.375 23.2267 155.375 22.6C155.375 21.9733 155.595 20.08 156.035 16.92C156.488 13.7467 156.715 11.4867 156.715 10.14C156.715 8.78 156.622 7.89333 156.435 7.48C157.782 7.58667 158.675 8.11333 159.115 9.06C160.075 8.52667 161.162 8.26 162.375 8.26C163.602 8.26 164.602 8.61333 165.375 9.32C166.162 10.0133 166.555 10.82 166.555 11.74C166.555 12.66 166.242 13.58 165.615 14.5C164.988 15.4067 164.055 16.0933 162.815 16.56L163.075 17.34C163.555 18.8333 164.248 20.3133 165.155 21.78C166.062 23.2333 166.802 24.2267 167.375 24.76C166.882 24.8933 166.388 24.96 165.895 24.96C165.415 24.96 164.928 24.8 164.435 24.48C163.942 24.1733 163.528 23.8333 163.195 23.46C162.875 23.0867 162.515 22.4933 162.115 21.68C161.715 20.8667 161.428 20.2333 161.255 19.78C161.082 19.3267 160.888 18.8267 160.675 18.28C160.475 17.7333 160.368 17.44 160.355 17.4C160.342 17.36 160.322 17.3133 160.295 17.26C160.268 17.1933 160.248 17.1333 160.235 17.08C159.942 17.08 159.655 17.08 159.375 17.08L159.315 16.16C161.008 16.0933 162.268 15.4867 163.095 14.34C163.548 13.7 163.775 13.0467 163.775 12.38C163.775 12.1267 163.748 11.88 163.695 11.64C163.468 10.7733 162.928 10.2333 162.075 10.02C161.835 9.95333 161.502 9.92 161.075 9.92C160.648 9.92 160.082 10.06 159.375 10.34C159.375 10.8467 159.182 12.5067 158.795 15.32C158.422 18.12 158.235 20.46 158.235 22.34C158.235 23.18 158.275 23.8333 158.355 24.3C157.928 24.3267 157.648 24.34 157.515 24.34Z" fill="#F7A04E"/>
</svg>
