<svg width="66" height="67" viewBox="0 0 66 67" fill="none" xmlns="http://www.w3.org/2000/svg">
<path fill-rule="evenodd" clip-rule="evenodd" d="M66 33.0674C66 51.2928 51.2254 66.0674 33 66.0674C14.7746 66.0674 0 51.2928 0 33.0674C0 14.842 14.7746 0.0673828 33 0.0673828C51.2254 0.0673828 66 14.842 66 33.0674ZM33 63.0674C49.5685 63.0674 63 49.6359 63 33.0674C63 16.4988 49.5685 3.06738 33 3.06738C16.4315 3.06738 3 16.4988 3 33.0674C3 49.6359 16.4315 63.0674 33 63.0674Z" fill="white"/>
<path d="M62.7432 29.1226C58.085 28.4775 54.0801 28.8555 50.7061 29.7119C46.3232 30.8247 43.1514 32.7188 41.3047 33.8208L41.0957 33.9458C40.499 34.3013 39.958 34.6343 39.46 34.9414C36.6523 36.6709 35.1689 37.5845 32.5703 37.0352C31.4404 36.7964 30.6797 36.2959 29.4541 34.5835C28.8281 33.709 28.1846 32.665 27.3398 31.292L27.1631 31.0059C26.2568 29.5337 25.1816 27.8027 23.8389 25.8711C20.3584 20.8633 15.4248 19.2607 10.6016 19.0962C9.21289 19.0488 7.78516 19.1201 6.35742 19.2637C11.3535 9.64111 21.4092 3.06738 33 3.06738C48.2314 3.06738 60.8115 14.4185 62.7432 29.1226Z" fill="#FCCE07"/>
<path d="M62.7155 37.2159C60.6952 51.8211 48.1609 63.0674 33 63.0674C16.4315 63.0674 3 49.6359 3 33.0674C3 31.2531 3.16105 29.4764 3.46963 27.7509C5.95202 27.3151 8.21842 27.0194 10.3289 27.0914C13.4614 27.1982 15.646 28.1007 17.2697 30.4367C18.479 32.1766 19.4579 33.7497 20.352 35.2014L20.5705 35.5565C21.3638 36.8459 22.152 38.1271 22.9486 39.24C24.8005 41.8272 27.0826 44.0523 30.917 44.8624C36.9119 46.129 41.316 43.2953 44.0831 41.5149C44.4869 41.255 44.8559 41.0177 45.1898 40.8187L45.3134 40.7451C47.1018 39.679 49.4347 38.2884 52.6749 37.4658C55.2924 36.8013 58.6044 36.4879 62.7155 37.2159Z" fill="black"/>
<path d="M62.7155 37.2159C62.9031 35.8599 63 34.475 63 33.0674C63 31.7303 62.9127 30.4134 62.7432 29.1226C58.085 28.4775 54.0801 28.8555 50.7061 29.7119C46.3232 30.8247 43.1514 32.7188 41.3047 33.8208L41.0957 33.9458C40.499 34.3013 39.958 34.6343 39.46 34.9414C36.6523 36.6709 35.1689 37.5845 32.5703 37.0352C31.4404 36.7964 30.6797 36.2959 29.4541 34.5835C28.8281 33.709 28.1846 32.665 27.3398 31.292L27.1631 31.0059C26.2568 29.5337 25.1816 27.8027 23.8389 25.8711C20.3584 20.8633 15.4248 19.2607 10.6016 19.0962C9.21289 19.0488 7.78516 19.1201 6.35742 19.2637C4.99412 21.8896 4.00764 24.7424 3.46963 27.7509C5.95202 27.3151 8.21842 27.0194 10.3289 27.0914C13.4614 27.1982 15.646 28.1007 17.2697 30.4367C18.479 32.1766 19.4579 33.7497 20.352 35.2014L20.5705 35.5565C21.3638 36.8459 22.152 38.1271 22.9486 39.24C24.8005 41.8272 27.0826 44.0523 30.917 44.8624C36.9119 46.129 41.316 43.2953 44.0831 41.5149C44.4869 41.255 44.8559 41.0177 45.1898 40.8187L45.3134 40.7451C47.1018 39.679 49.4347 38.2884 52.6749 37.4658C55.2924 36.8013 58.6044 36.4879 62.7155 37.2159Z" fill="white"/>
</svg>
