<svg width="178" height="40" viewBox="0 0 178 40" fill="none" xmlns="http://www.w3.org/2000/svg">
<g filter="url(#filter0_d_1258_21088)">
<path d="M36.3474 15.8962C33.8255 15.5521 31.6572 15.7537 29.8304 16.2104C27.4574 16.8039 25.7402 17.8141 24.7404 18.4018L24.6272 18.4685C24.3041 18.6581 24.0112 18.8357 23.7416 18.9995C22.2214 19.9219 21.4184 20.4092 20.0114 20.1162C19.3997 19.9888 18.9878 19.7219 18.3242 18.8086C17.9854 18.3422 17.637 17.7854 17.1796 17.0531L17.0839 16.9005C16.5932 16.1153 16.0111 15.1922 15.2841 14.162C13.3997 11.4912 10.7286 10.6365 8.11723 10.5487C7.3654 10.5234 6.59237 10.5614 5.81934 10.638C8.52435 5.50599 13.9686 2 20.2441 2C28.4906 2 35.3016 8.05393 36.3474 15.8962Z" fill="#FCCE07"/>
<path d="M36.3308 20.2126C35.237 28.0021 28.4508 34 20.2424 34C11.272 34 4 26.8366 4 18.0001C4 17.0324 4.08719 16.0849 4.25418 15.1646C5.59823 14.9321 6.82532 14.7744 7.96795 14.8129C9.66397 14.8698 10.8468 15.3512 11.7258 16.5971C12.3805 17.5249 12.9105 18.364 13.3947 19.1382L13.5129 19.3276C13.9424 20.0153 14.3691 20.6985 14.8004 21.2921C15.8031 22.672 17.0386 23.8587 19.1146 24.2907C22.3604 24.9663 24.7448 23.4549 26.2429 22.5055C26.4616 22.3668 26.6614 22.2402 26.8422 22.1341L26.909 22.0949C27.8774 21.5263 29.1404 20.7845 30.8947 20.3459C32.3119 19.9915 34.105 19.8244 36.3308 20.2126Z" fill="black"/>
<path d="M36.3325 20.2124C36.434 19.4891 36.4865 18.7505 36.4865 17.9998C36.4865 17.2867 36.4392 16.5844 36.3475 15.8959C33.8254 15.5519 31.6571 15.7535 29.8303 16.2103C27.4574 16.8037 25.7402 17.8138 24.7404 18.4017L24.6272 18.4684C24.3042 18.6579 24.0112 18.8355 23.7416 18.9992C22.2215 19.9216 21.4184 20.4089 20.0114 20.116C19.3997 19.9886 18.9878 19.7216 18.3242 18.8084C17.9853 18.342 17.6369 17.7853 17.1795 17.053L17.0839 16.9004C16.5932 16.1152 16.0111 15.192 15.2841 14.1618C13.3997 11.4909 10.7286 10.6362 8.11721 10.5485C7.36538 10.5233 6.59235 10.5613 5.81943 10.6379C5.0813 12.0384 4.54721 13.5598 4.25586 15.1643C5.59991 14.932 6.82699 14.7742 7.96963 14.8126C9.66553 14.8695 10.8483 15.3509 11.7275 16.5968C12.3822 17.5248 12.9121 18.3637 13.3962 19.138L13.5145 19.3274C13.944 20.015 14.3708 20.6984 14.8021 21.2919C15.8048 22.6717 17.0403 23.8585 19.1163 24.2905C22.3621 24.966 24.7464 23.4547 26.2446 22.5052C26.4632 22.3665 26.6631 22.24 26.8437 22.1339L26.9107 22.0946C27.8789 21.5261 29.142 20.7844 30.8964 20.3457C32.3134 19.9912 34.1067 19.8241 36.3325 20.2124Z" fill="white"/>
</g>
<path d="M51.4017 13.3439C52.1303 13.3439 52.6607 13.2275 52.9929 12.9945C53.325 12.7615 53.4911 12.4323 53.4911 12.0069C53.4911 11.7537 53.4322 11.5359 53.3143 11.3536C53.2072 11.1713 53.0465 11.0092 52.8321 10.8674C52.6286 10.7155 52.3768 10.5787 52.0767 10.4572C51.7767 10.3255 51.4338 10.1989 51.0481 10.0773C50.6623 9.94569 50.2873 9.80387 49.923 9.65193C49.5694 9.48989 49.2533 9.29238 48.9747 9.05939C48.7068 8.82641 48.4872 8.5479 48.3157 8.22376C48.155 7.89961 48.0746 7.50967 48.0746 7.05387C48.0746 6.10177 48.4229 5.35729 49.1194 4.82044C49.8158 4.27348 50.7641 4 51.9642 4C52.6607 4 53.2768 4.07597 53.8126 4.2279C54.3591 4.36971 54.7876 4.5267 55.0984 4.6989L54.4716 6.24862C54.1073 6.05619 53.7054 5.90928 53.2661 5.80801C52.8375 5.70674 52.3928 5.65608 51.9321 5.65608C51.3856 5.65608 50.957 5.76243 50.6463 5.97514C50.3462 6.18785 50.1962 6.48663 50.1962 6.87155C50.1962 7.10453 50.2444 7.30707 50.3409 7.47928C50.448 7.64133 50.5927 7.78823 50.7748 7.91989C50.9677 8.05155 51.1874 8.17309 51.4338 8.28453C51.691 8.39597 51.9696 8.50232 52.2696 8.60359C52.7946 8.78591 53.2607 8.97332 53.6679 9.16575C54.0858 9.34807 54.434 9.57088 54.7127 9.83425C55.002 10.0875 55.2216 10.3913 55.3716 10.7459C55.5217 11.0902 55.5967 11.5106 55.5967 12.0069C55.5967 12.959 55.2377 13.6985 54.5198 14.2251C53.8126 14.7417 52.7732 15 51.4017 15C50.9409 15 50.5177 14.9696 50.1319 14.9088C49.7569 14.8582 49.4194 14.7924 49.1194 14.7113C48.83 14.6303 48.5782 14.5493 48.3639 14.4682C48.1496 14.3771 47.9782 14.296 47.8496 14.2251L48.4443 12.6602C48.7336 12.8122 49.1247 12.9641 49.6176 13.116C50.1105 13.268 50.7052 13.3439 51.4017 13.3439ZM60.5316 4.13674C62.1496 4.13674 63.3871 4.41529 64.2444 4.97238C65.1123 5.52945 65.5463 6.40055 65.5463 7.58564C65.5463 8.20348 65.4284 8.73525 65.1927 9.18094C64.9676 9.61646 64.6355 9.97608 64.1962 10.2597C63.7568 10.5331 63.2211 10.7357 62.5889 10.8674C61.9567 10.9991 61.2334 11.0649 60.4191 11.0649H59.4065V14.7721H57.3813V4.39503C57.8528 4.29374 58.3725 4.2279 58.9404 4.19751C59.519 4.157 60.0494 4.13674 60.5316 4.13674ZM60.6762 5.79282C60.1619 5.79282 59.7386 5.80801 59.4065 5.8384V9.42403H60.3869C61.362 9.42403 62.1121 9.2974 62.6371 9.0442C63.1621 8.78083 63.4247 8.28961 63.4247 7.57044C63.4247 7.22608 63.355 6.9374 63.2157 6.70442C63.0764 6.47144 62.8836 6.28912 62.6371 6.15746C62.3906 6.0258 62.096 5.93464 61.7531 5.88398C61.421 5.8232 61.062 5.79282 60.6762 5.79282ZM70.7546 14.8936C70.1653 14.8936 69.5706 14.8734 68.9705 14.8329C68.3705 14.8025 67.8454 14.7316 67.3954 14.6202V4.39503C67.6311 4.35451 67.8829 4.31906 68.1508 4.28867C68.4187 4.24816 68.6919 4.21777 68.9705 4.19751C69.2491 4.17725 69.5223 4.16206 69.7902 4.15193C70.0688 4.14181 70.3314 4.13674 70.5778 4.13674C71.2528 4.13674 71.8797 4.18739 72.4583 4.28867C73.0369 4.37983 73.5351 4.53683 73.953 4.75967C74.3817 4.98249 74.7138 5.27624 74.9495 5.64088C75.1853 6.00552 75.3031 6.45624 75.3031 6.99309C75.3031 7.48939 75.1746 7.91481 74.9174 8.26934C74.671 8.62387 74.3227 8.90746 73.8727 9.12017C74.5477 9.33287 75.046 9.64685 75.3674 10.0622C75.6889 10.4775 75.8496 11.0041 75.8496 11.6423C75.8496 12.7261 75.4317 13.5414 74.5959 14.0884C73.7602 14.6253 72.4797 14.8936 70.7546 14.8936ZM69.3884 10.0318V13.2376C69.6134 13.2578 69.8545 13.273 70.1117 13.2831C70.3688 13.2933 70.6046 13.2983 70.8189 13.2983C71.2367 13.2983 71.6225 13.273 71.9761 13.2224C72.3404 13.1717 72.6511 13.0856 72.9083 12.9641C73.1762 12.8324 73.3852 12.6602 73.5351 12.4475C73.6959 12.2348 73.7762 11.9613 73.7762 11.6271C73.7762 11.0294 73.5459 10.6142 73.0851 10.3812C72.6244 10.1482 71.9868 10.0318 71.1725 10.0318H69.3884ZM69.3884 8.52762H70.8189C71.5903 8.52762 72.1958 8.42635 72.6351 8.22376C73.0744 8.01105 73.2941 7.6363 73.2941 7.09945C73.2941 6.59298 73.0637 6.23343 72.6029 6.02072C72.1529 5.80801 71.5636 5.70166 70.8349 5.70166C70.5242 5.70166 70.2456 5.70674 69.9991 5.71685C69.7634 5.72696 69.5599 5.74215 69.3884 5.76243V8.52762Z" fill="white"/>
<path d="M89.6817 4.29553V5.99688H86.2798V15.1124H84.2515V5.99688H80.8496V4.29553H89.6817ZM95.303 8.65036C95.1433 8.59832 94.9197 8.54633 94.6322 8.49428C94.3558 8.43184 94.0308 8.40062 93.6579 8.40062C93.4454 8.40062 93.2163 8.42146 92.9712 8.46306C92.7371 8.50466 92.5719 8.5411 92.4761 8.57232V15.1124H90.5435V7.33923C90.9164 7.20397 91.3796 7.0791 91.933 6.96462C92.4976 6.83975 93.1204 6.77732 93.8017 6.77732C93.9294 6.77732 94.0787 6.7877 94.2489 6.80853C94.4196 6.81892 94.5898 6.83975 94.76 6.87097C94.9307 6.8918 95.0953 6.92302 95.2551 6.96462C95.4148 6.99584 95.5425 7.02706 95.6384 7.05827L95.303 8.65036ZM99.9242 13.7856C100.52 13.7856 100.973 13.7544 101.282 13.692V11.6004C101.175 11.5692 101.021 11.538 100.819 11.5068C100.616 11.4755 100.392 11.4599 100.148 11.4599C99.9346 11.4599 99.7166 11.4755 99.493 11.5068C99.2798 11.538 99.0826 11.5952 98.902 11.6785C98.7313 11.7617 98.5931 11.8814 98.4868 12.0375C98.3799 12.1832 98.3271 12.3705 98.3271 12.5994C98.3271 13.0468 98.4708 13.359 98.7583 13.5359C99.0458 13.7024 99.434 13.7856 99.9242 13.7856ZM99.7645 6.7461C100.403 6.7461 100.941 6.82414 101.378 6.98023C101.814 7.13632 102.16 7.35484 102.416 7.6358C102.682 7.91675 102.868 8.26015 102.975 8.66597C103.091 9.06141 103.15 9.49846 103.15 9.97711V14.9251C102.852 14.9875 102.4 15.0603 101.793 15.1436C101.196 15.2373 100.52 15.2841 99.7645 15.2841C99.2638 15.2841 98.8062 15.2373 98.391 15.1436C97.9757 15.0499 97.6188 14.8991 97.3209 14.6909C97.0334 14.4828 96.8043 14.2123 96.6341 13.8793C96.4744 13.5463 96.3945 13.1353 96.3945 12.6462C96.3945 12.1779 96.4848 11.7825 96.6661 11.4599C96.8577 11.1374 97.1133 10.8772 97.4327 10.6795C97.7521 10.4714 98.1194 10.3257 98.5347 10.2425C98.9604 10.1488 99.4021 10.102 99.8603 10.102C100.073 10.102 100.296 10.1176 100.531 10.1488C100.765 10.1696 101.015 10.2112 101.282 10.2737V9.9615C101.282 9.74298 101.255 9.53484 101.202 9.33715C101.148 9.13946 101.053 8.96776 100.914 8.82206C100.787 8.66597 100.611 8.54633 100.387 8.46306C100.174 8.37979 99.9027 8.33819 99.5728 8.33819C99.1256 8.33819 98.7153 8.36941 98.343 8.43184C97.9702 8.49428 97.6667 8.5671 97.4327 8.65036L97.1931 7.12071C97.4376 7.03744 97.7945 6.95423 98.2632 6.87097C98.7313 6.7877 99.2319 6.7461 99.7645 6.7461ZM107.454 15.1124C106.921 14.0406 106.374 12.8127 105.809 11.4287C105.256 10.0343 104.749 8.5411 104.292 6.94901H106.352C106.469 7.40689 106.602 7.90114 106.751 8.43184C106.911 8.95215 107.076 9.47763 107.246 10.0083C107.428 10.5286 107.608 11.0385 107.789 11.538C107.981 12.0271 108.157 12.4693 108.316 12.8647C108.476 12.4693 108.646 12.0271 108.828 11.538C109.009 11.0385 109.184 10.5286 109.355 10.0083C109.536 9.47763 109.706 8.95215 109.866 8.43184C110.025 7.90114 110.164 7.40689 110.281 6.94901H112.277C111.82 8.5411 111.309 10.0343 110.744 11.4287C110.191 12.8127 109.648 14.0406 109.115 15.1124H107.454ZM113.07 11.0697C113.07 10.3517 113.177 9.72215 113.39 9.18106C113.613 8.63998 113.906 8.19249 114.268 7.83871C114.63 7.47449 115.045 7.20397 115.514 7.02706C115.983 6.83975 116.462 6.7461 116.951 6.7461C118.101 6.7461 118.996 7.09471 119.635 7.79188C120.284 8.48905 120.609 9.52968 120.609 10.9136C120.609 11.0177 120.603 11.1374 120.593 11.2726C120.593 11.3975 120.587 11.512 120.577 11.616H115.067C115.12 12.2716 115.354 12.7815 115.77 13.1457C116.195 13.4995 116.808 13.6764 117.606 13.6764C118.075 13.6764 118.501 13.6348 118.884 13.5515C119.278 13.4682 119.587 13.3798 119.81 13.2862L120.066 14.8314C119.96 14.8835 119.81 14.9407 119.619 15.0031C119.437 15.0552 119.225 15.102 118.98 15.1436C118.746 15.1957 118.49 15.2373 118.213 15.2685C117.936 15.2997 117.654 15.3153 117.367 15.3153C116.632 15.3153 115.993 15.2113 115.45 15.0031C114.907 14.7846 114.46 14.488 114.109 14.1134C113.757 13.7284 113.496 13.2809 113.326 12.7711C113.156 12.2508 113.07 11.6837 113.07 11.0697ZM118.676 10.2268C118.676 9.96672 118.639 9.72214 118.564 9.49324C118.49 9.25388 118.378 9.05097 118.229 8.8845C118.091 8.70758 117.915 8.57232 117.702 8.47867C117.5 8.37463 117.255 8.32258 116.967 8.32258C116.669 8.32258 116.408 8.37979 116.185 8.49428C115.961 8.59832 115.77 8.73879 115.61 8.91571C115.461 9.09263 115.344 9.29555 115.258 9.52445C115.173 9.75336 115.115 9.98749 115.083 10.2268H118.676ZM125.564 15.2685C124.989 15.2581 124.51 15.1957 124.127 15.0812C123.755 14.9667 123.456 14.8054 123.232 14.5973C123.009 14.3788 122.849 14.1134 122.753 13.8012C122.668 13.4787 122.625 13.1145 122.625 12.7086V3.31217L124.558 3V12.3496C124.558 12.5785 124.574 12.7711 124.606 12.9272C124.649 13.0832 124.718 13.2185 124.814 13.333C124.909 13.437 125.037 13.5203 125.197 13.5827C125.368 13.6348 125.58 13.6764 125.836 13.7076L125.564 15.2685ZM136.398 5.77836C135.258 5.77836 134.385 6.12697 133.778 6.82414C133.182 7.51093 132.884 8.46828 132.884 9.69615C132.884 10.2789 132.953 10.8148 133.092 11.3039C133.24 11.7825 133.453 12.1935 133.73 12.5369C134.018 12.8803 134.369 13.1509 134.785 13.3486C135.21 13.5359 135.705 13.6296 136.27 13.6296C136.621 13.6296 136.925 13.6192 137.18 13.5983C137.436 13.5671 137.638 13.5307 137.787 13.4891V9.6025H139.799V14.8002C139.522 14.9042 139.054 15.0187 138.394 15.1436C137.734 15.2685 136.973 15.3309 136.11 15.3309C135.312 15.3309 134.582 15.206 133.922 14.9563C133.262 14.7066 132.697 14.3423 132.229 13.8637C131.771 13.385 131.415 12.7971 131.159 12.0999C130.903 11.4027 130.776 10.6015 130.776 9.69615C130.776 8.79084 130.914 7.98957 131.191 7.2924C131.478 6.59523 131.867 6.00726 132.357 5.52862C132.846 5.03952 133.421 4.67014 134.082 4.4204C134.742 4.17066 135.444 4.04579 136.19 4.04579C136.701 4.04579 137.153 4.08221 137.548 4.15505C137.952 4.21748 138.298 4.29032 138.586 4.37357C138.873 4.45682 139.107 4.54527 139.288 4.63892C139.48 4.73257 139.613 4.80021 139.688 4.84183L139.081 6.44953C138.761 6.26223 138.362 6.10614 137.883 5.98127C137.414 5.84601 136.919 5.77836 136.398 5.77836ZM146.789 8.65036C146.629 8.59832 146.405 8.54633 146.118 8.49428C145.841 8.43184 145.516 8.40062 145.144 8.40062C144.931 8.40062 144.701 8.42146 144.457 8.46306C144.222 8.50466 144.058 8.5411 143.962 8.57232V15.1124H142.029V7.33923C142.402 7.20397 142.865 7.0791 143.419 6.96462C143.983 6.83975 144.606 6.77732 145.287 6.77732C145.415 6.77732 145.564 6.7877 145.735 6.80853C145.905 6.81892 146.075 6.83975 146.246 6.87097C146.416 6.8918 146.581 6.92302 146.741 6.96462C146.901 6.99584 147.028 7.02706 147.124 7.05827L146.789 8.65036ZM156.025 11.0229C156.025 11.6681 155.929 12.256 155.738 12.7867C155.546 13.3174 155.274 13.77 154.923 14.1446C154.572 14.5193 154.146 14.8106 153.645 15.0187C153.156 15.2269 152.613 15.3309 152.016 15.3309C151.42 15.3309 150.877 15.2269 150.387 15.0187C149.898 14.8106 149.477 14.5193 149.125 14.1446C148.774 13.77 148.497 13.3174 148.295 12.7867C148.103 12.256 148.007 11.6681 148.007 11.0229C148.007 10.3777 148.103 9.79503 148.295 9.27471C148.497 8.74402 148.774 8.29136 149.125 7.91675C149.487 7.54214 149.914 7.25596 150.403 7.05827C150.893 6.85014 151.431 6.7461 152.016 6.7461C152.602 6.7461 153.14 6.85014 153.629 7.05827C154.13 7.25596 154.556 7.54214 154.907 7.91675C155.258 8.29136 155.53 8.74402 155.722 9.27471C155.924 9.79503 156.025 10.3777 156.025 11.0229ZM154.045 11.0229C154.045 10.2112 153.863 9.57128 153.502 9.10302C153.15 8.62437 152.655 8.38502 152.016 8.38502C151.377 8.38502 150.877 8.62437 150.515 9.10302C150.164 9.57128 149.988 10.2112 149.988 11.0229C149.988 11.8449 150.164 12.4953 150.515 12.974C150.877 13.4526 151.377 13.692 152.016 13.692C152.655 13.692 153.15 13.4526 153.502 12.974C153.863 12.4953 154.045 11.8449 154.045 11.0229ZM164.868 14.8626C164.495 14.9563 164.011 15.0499 163.414 15.1436C162.818 15.2476 162.163 15.2997 161.45 15.2997C160.779 15.2997 160.214 15.206 159.757 15.0187C159.31 14.8314 158.948 14.5713 158.671 14.2383C158.405 13.9053 158.213 13.5099 158.096 13.052C157.978 12.5838 157.92 12.0739 157.92 11.5224V6.94901H159.853V11.2258C159.853 12.0999 159.98 12.7242 160.236 13.0989C160.502 13.4735 160.96 13.6608 161.609 13.6608C161.843 13.6608 162.089 13.6504 162.344 13.6296C162.61 13.6087 162.807 13.5827 162.935 13.5515V6.94901H164.868V14.8626ZM172.869 11.0697C172.869 10.2268 172.673 9.57128 172.278 9.10302C171.895 8.63476 171.272 8.40062 170.41 8.40062C170.229 8.40062 170.037 8.41101 169.835 8.43184C169.643 8.44223 169.451 8.47345 169.26 8.52549V13.1925C169.43 13.307 169.654 13.4163 169.93 13.5203C170.218 13.6139 170.521 13.6608 170.841 13.6608C171.544 13.6608 172.055 13.4266 172.374 12.9584C172.705 12.4901 172.869 11.8605 172.869 11.0697ZM174.85 11.0385C174.85 11.6629 174.765 12.2352 174.594 12.7555C174.434 13.2758 174.2 13.7232 173.891 14.0978C173.583 14.4724 173.194 14.7638 172.725 14.9719C172.268 15.18 171.746 15.2841 171.16 15.2841C170.766 15.2841 170.405 15.2373 170.074 15.1436C169.744 15.0499 169.473 14.9459 169.26 14.8314V18H167.327V7.21436C167.722 7.11032 168.206 7.01145 168.781 6.91779C169.355 6.82414 169.962 6.77732 170.601 6.77732C171.262 6.77732 171.853 6.87619 172.374 7.07388C172.896 7.27157 173.338 7.55775 173.7 7.93236C174.073 8.29659 174.354 8.74402 174.546 9.27471C174.749 9.79503 174.85 10.3829 174.85 11.0385Z" fill="white"/>
<rect x="47.8496" y="22" width="130" height="12" rx="4" fill="#FCCE07"/>
<path d="M56.6422 31V24.4545H58.9306C59.3865 24.4545 59.7626 24.5334 60.0588 24.6911C60.3549 24.8466 60.5755 25.0565 60.7203 25.3207C60.8652 25.5827 60.9377 25.8736 60.9377 26.1932C60.9377 26.4744 60.8876 26.7067 60.7875 26.8899C60.6895 27.0732 60.5595 27.218 60.3976 27.3246C60.2377 27.4311 60.0641 27.5099 59.8766 27.5611V27.625C60.0769 27.6378 60.2782 27.7081 60.4806 27.8359C60.6831 27.9638 60.8525 28.147 60.9888 28.3857C61.1252 28.6243 61.1934 28.9162 61.1934 29.2614C61.1934 29.5895 61.1188 29.8846 60.9696 30.1467C60.8205 30.4087 60.585 30.6165 60.2633 30.7699C59.9416 30.9233 59.5229 31 59.0073 31H56.6422ZM57.4348 30.2969H59.0073C59.525 30.2969 59.8926 30.1967 60.1099 29.9964C60.3294 29.794 60.4391 29.549 60.4391 29.2614C60.4391 29.0398 60.3826 28.8352 60.2697 28.6477C60.1568 28.4581 59.9959 28.3068 59.7871 28.1939C59.5783 28.0788 59.3311 28.0213 59.0456 28.0213H57.4348V30.2969ZM57.4348 27.331H58.905C59.1436 27.331 59.3588 27.2841 59.5506 27.1903C59.7445 27.0966 59.8979 26.9645 60.0108 26.794C60.1259 26.6236 60.1834 26.4233 60.1834 26.1932C60.1834 25.9055 60.0833 25.6616 59.883 25.4613C59.6827 25.2589 59.3652 25.1577 58.9306 25.1577H57.4348V27.331ZM63.8381 31.1151C63.527 31.1151 63.2447 31.0565 62.9911 30.9393C62.7376 30.82 62.5362 30.6484 62.3871 30.4247C62.2379 30.1989 62.1634 29.9261 62.1634 29.6065C62.1634 29.3253 62.2188 29.0973 62.3295 28.9226C62.4403 28.7457 62.5884 28.6072 62.7738 28.5071C62.9592 28.407 63.1637 28.3324 63.3874 28.2834C63.6133 28.2322 63.8402 28.1918 64.0682 28.1619C64.3665 28.1236 64.6083 28.0948 64.7937 28.0756C64.9812 28.0543 65.1175 28.0192 65.2028 27.9702C65.2901 27.9212 65.3338 27.8359 65.3338 27.7145V27.6889C65.3338 27.3736 65.2475 27.1286 65.0749 26.9538C64.9045 26.7791 64.6456 26.6918 64.2983 26.6918C63.9382 26.6918 63.6559 26.7706 63.4513 26.9283C63.2468 27.0859 63.103 27.2543 63.0199 27.4332L62.304 27.1776C62.4318 26.8793 62.6023 26.647 62.8153 26.4808C63.0305 26.3125 63.2649 26.1953 63.5185 26.1293C63.7741 26.0611 64.0256 26.027 64.2727 26.027C64.4304 26.027 64.6115 26.0462 64.8161 26.0845C65.0227 26.1207 65.2219 26.1964 65.4137 26.3114C65.6076 26.4265 65.7685 26.6001 65.8963 26.8324C66.0241 27.0646 66.0881 27.3757 66.0881 27.7656V31H65.3338V30.3352H65.2955C65.2443 30.4418 65.1591 30.5558 65.0398 30.6772C64.9205 30.7987 64.7617 30.902 64.5636 30.9872C64.3654 31.0724 64.1236 31.1151 63.8381 31.1151ZM63.9531 30.4375C64.2514 30.4375 64.5028 30.3789 64.7074 30.2617C64.9141 30.1445 65.0696 29.9933 65.174 29.8079C65.2805 29.6225 65.3338 29.4276 65.3338 29.223V28.5327C65.3018 28.571 65.2315 28.6062 65.1229 28.6381C65.0163 28.668 64.8928 28.6946 64.7521 28.718C64.6136 28.7393 64.4783 28.7585 64.3462 28.7756C64.2163 28.7905 64.1108 28.8033 64.0298 28.8139C63.8338 28.8395 63.6506 28.881 63.4801 28.9386C63.3118 28.994 63.1754 29.0781 63.071 29.1911C62.9688 29.3018 62.9176 29.4531 62.9176 29.6449C62.9176 29.907 63.0146 30.1051 63.2085 30.2393C63.4045 30.3714 63.6527 30.4375 63.9531 30.4375ZM67.4648 26.0909H68.219V30.2969H70.0727V26.0909H70.827V30.2969H72.6807V26.0909H73.4349V31H67.4648V26.0909ZM79.338 31.1023C78.8948 31.1023 78.5059 30.9968 78.1714 30.7859C77.839 30.5749 77.5791 30.2798 77.3916 29.9006C77.2062 29.5213 77.1135 29.0781 77.1135 28.571C77.1135 28.0597 77.2062 27.6133 77.3916 27.2319C77.5791 26.8505 77.839 26.5543 78.1714 26.3434C78.5059 26.1325 78.8948 26.027 79.338 26.027C79.7812 26.027 80.1689 26.1325 80.5013 26.3434C80.8358 26.5543 81.0958 26.8505 81.2812 27.2319C81.4687 27.6133 81.5624 28.0597 81.5624 28.571C81.5624 29.0781 81.4687 29.5213 81.2812 29.9006C81.0958 30.2798 80.8358 30.5749 80.5013 30.7859C80.1689 30.9968 79.7812 31.1023 79.338 31.1023ZM79.338 30.4247C79.6746 30.4247 79.9516 30.3384 80.1689 30.1658C80.3863 29.9933 80.5471 29.7663 80.6515 29.4851C80.7559 29.2038 80.8082 28.8991 80.8082 28.571C80.8082 28.2429 80.7559 27.9371 80.6515 27.6538C80.5471 27.3704 80.3863 27.1413 80.1689 26.9666C79.9516 26.7919 79.6746 26.7045 79.338 26.7045C79.0013 26.7045 78.7243 26.7919 78.507 26.9666C78.2897 27.1413 78.1288 27.3704 78.0244 27.6538C77.92 27.9371 77.8678 28.2429 77.8678 28.571C77.8678 28.8991 77.92 29.2038 78.0244 29.4851C78.1288 29.7663 78.2897 29.9933 78.507 30.1658C78.7243 30.3384 79.0013 30.4247 79.338 30.4247ZM82.0722 26.794V26.0909H86.0608V26.794H84.45V31H83.6958V26.794H82.0722ZM86.2238 32.4062V30.2969H86.6329C86.733 30.1925 86.8193 30.0795 86.8918 29.9581C86.9642 29.8366 87.0271 29.6928 87.0803 29.5266C87.1357 29.3583 87.1826 29.1538 87.221 28.913C87.2593 28.6701 87.2934 28.3771 87.3232 28.0341L87.4894 26.0909H90.6088V30.2969H91.363V32.4062H90.6088V31H86.9781V32.4062H86.2238ZM87.4894 30.2969H89.8545V26.794H88.1926L88.0647 28.0341C88.0115 28.5476 87.9454 28.9961 87.8666 29.3796C87.7877 29.7631 87.662 30.0689 87.4894 30.2969ZM93.0162 27.8679H94.4224C94.9977 27.8679 95.4377 28.0138 95.7424 28.3058C96.0471 28.5977 96.1994 28.9673 96.1994 29.4148C96.1994 29.7088 96.1312 29.9762 95.9949 30.217C95.8585 30.4556 95.6582 30.6463 95.394 30.7891C95.1298 30.9297 94.8059 31 94.4224 31H92.3642V26.0909H93.1184V30.2969H94.4224C94.7207 30.2969 94.9657 30.218 95.1575 30.0604C95.3493 29.9027 95.4451 29.7003 95.4451 29.4531C95.4451 29.1932 95.3493 28.9812 95.1575 28.8171C94.9657 28.6531 94.7207 28.571 94.4224 28.571H93.0162V27.8679ZM96.9792 31V26.0909H97.7335V31H96.9792ZM99.6767 26.0909L100.853 28.098L102.029 26.0909H102.898L101.313 28.5455L102.898 31H102.029L100.853 29.0952L99.6767 31H98.8074L100.367 28.5455L98.8074 26.0909H99.6767ZM109.318 27.8423V28.5455H106.455V27.8423H109.318ZM116.462 28.2003V28.9034H113.752V28.2003H116.462ZM113.931 26.0909V31H113.177V26.0909H113.931ZM117.037 26.0909V31H116.283V26.0909H117.037ZM119.86 31.1151C119.548 31.1151 119.266 31.0565 119.013 30.9393C118.759 30.82 118.558 30.6484 118.409 30.4247C118.259 30.1989 118.185 29.9261 118.185 29.6065C118.185 29.3253 118.24 29.0973 118.351 28.9226C118.462 28.7457 118.61 28.6072 118.795 28.5071C118.981 28.407 119.185 28.3324 119.409 28.2834C119.635 28.2322 119.862 28.1918 120.09 28.1619C120.388 28.1236 120.63 28.0948 120.815 28.0756C121.003 28.0543 121.139 28.0192 121.224 27.9702C121.312 27.9212 121.355 27.8359 121.355 27.7145V27.6889C121.355 27.3736 121.269 27.1286 121.096 26.9538C120.926 26.7791 120.667 26.6918 120.32 26.6918C119.96 26.6918 119.677 26.7706 119.473 26.9283C119.268 27.0859 119.124 27.2543 119.041 27.4332L118.325 27.1776C118.453 26.8793 118.624 26.647 118.837 26.4808C119.052 26.3125 119.286 26.1953 119.54 26.1293C119.796 26.0611 120.047 26.027 120.294 26.027C120.452 26.027 120.633 26.0462 120.838 26.0845C121.044 26.1207 121.243 26.1964 121.435 26.3114C121.629 26.4265 121.79 26.6001 121.918 26.8324C122.046 27.0646 122.11 27.3757 122.11 27.7656V31H121.355V30.3352H121.317C121.266 30.4418 121.181 30.5558 121.061 30.6772C120.942 30.7987 120.783 30.902 120.585 30.9872C120.387 31.0724 120.145 31.1151 119.86 31.1151ZM119.975 30.4375C120.273 30.4375 120.524 30.3789 120.729 30.2617C120.936 30.1445 121.091 29.9933 121.195 29.8079C121.302 29.6225 121.355 29.4276 121.355 29.223V28.5327C121.323 28.571 121.253 28.6062 121.144 28.6381C121.038 28.668 120.914 28.6946 120.774 28.718C120.635 28.7393 120.5 28.7585 120.368 28.7756C120.238 28.7905 120.132 28.8033 120.051 28.8139C119.855 28.8395 119.672 28.881 119.502 28.9386C119.333 28.994 119.197 29.0781 119.093 29.1911C118.99 29.3018 118.939 29.4531 118.939 29.6449C118.939 29.907 119.036 30.1051 119.23 30.2393C119.426 30.3714 119.674 30.4375 119.975 30.4375ZM123.486 26.0909H124.241V30.2969H126.094V26.0909H126.848V30.2969H128.702V26.0909H129.456V31H123.486V26.0909ZM132.278 31.1151C131.967 31.1151 131.685 31.0565 131.432 30.9393C131.178 30.82 130.977 30.6484 130.828 30.4247C130.678 30.1989 130.604 29.9261 130.604 29.6065C130.604 29.3253 130.659 29.0973 130.77 28.9226C130.881 28.7457 131.029 28.6072 131.214 28.5071C131.4 28.407 131.604 28.3324 131.828 28.2834C132.054 28.2322 132.281 28.1918 132.509 28.1619C132.807 28.1236 133.049 28.0948 133.234 28.0756C133.422 28.0543 133.558 28.0192 133.643 27.9702C133.731 27.9212 133.774 27.8359 133.774 27.7145V27.6889C133.774 27.3736 133.688 27.1286 133.515 26.9538C133.345 26.7791 133.086 26.6918 132.739 26.6918C132.379 26.6918 132.096 26.7706 131.892 26.9283C131.687 27.0859 131.543 27.2543 131.46 27.4332L130.744 27.1776C130.872 26.8793 131.043 26.647 131.256 26.4808C131.471 26.3125 131.705 26.1953 131.959 26.1293C132.215 26.0611 132.466 26.027 132.713 26.027C132.871 26.027 133.052 26.0462 133.256 26.0845C133.463 26.1207 133.662 26.1964 133.854 26.3114C134.048 26.4265 134.209 26.6001 134.337 26.8324C134.465 27.0646 134.528 27.3757 134.528 27.7656V31H133.774V30.3352H133.736C133.685 30.4418 133.6 30.5558 133.48 30.6772C133.361 30.7987 133.202 30.902 133.004 30.9872C132.806 31.0724 132.564 31.1151 132.278 31.1151ZM132.394 30.4375C132.692 30.4375 132.943 30.3789 133.148 30.2617C133.354 30.1445 133.51 29.9933 133.614 29.8079C133.721 29.6225 133.774 29.4276 133.774 29.223V28.5327C133.742 28.571 133.672 28.6062 133.563 28.6381C133.457 28.668 133.333 28.6946 133.193 28.718C133.054 28.7393 132.919 28.7585 132.787 28.7756C132.657 28.7905 132.551 28.8033 132.47 28.8139C132.274 28.8395 132.091 28.881 131.921 28.9386C131.752 28.994 131.616 29.0781 131.511 29.1911C131.409 29.3018 131.358 29.4531 131.358 29.6449C131.358 29.907 131.455 30.1051 131.649 30.2393C131.845 30.3714 132.093 30.4375 132.394 30.4375ZM138.13 29.7472H138.935C138.952 29.9687 139.052 30.1371 139.235 30.2521C139.421 30.3672 139.662 30.4247 139.958 30.4247C140.26 30.4247 140.519 30.3629 140.734 30.2393C140.95 30.1136 141.057 29.9112 141.057 29.6321C141.057 29.468 141.017 29.3253 140.936 29.2038C140.855 29.0803 140.741 28.9844 140.594 28.9162C140.447 28.848 140.273 28.8139 140.073 28.8139H139.229V28.1364H140.073C140.373 28.1364 140.595 28.0682 140.738 27.9318C140.882 27.7955 140.955 27.625 140.955 27.4205C140.955 27.201 140.877 27.0252 140.722 26.8931C140.566 26.7589 140.346 26.6918 140.06 26.6918C139.772 26.6918 139.533 26.7567 139.341 26.8867C139.149 27.0146 139.048 27.1797 139.037 27.3821H138.245C138.253 27.1179 138.334 26.8846 138.488 26.6822C138.641 26.4776 138.85 26.3178 139.114 26.2028C139.378 26.0856 139.681 26.027 140.022 26.027C140.367 26.027 140.666 26.0877 140.92 26.2092C141.175 26.3285 141.373 26.4915 141.511 26.6982C141.652 26.9027 141.722 27.1349 141.722 27.3949C141.722 27.6719 141.644 27.8956 141.489 28.0661C141.333 28.2365 141.138 28.358 140.904 28.4304V28.4815C141.089 28.4943 141.25 28.554 141.386 28.6605C141.525 28.7649 141.632 28.9023 141.709 29.0728C141.786 29.2411 141.824 29.4276 141.824 29.6321C141.824 29.9304 141.744 30.1903 141.585 30.4119C141.425 30.6314 141.205 30.8018 140.926 30.9233C140.647 31.0426 140.328 31.1023 139.971 31.1023C139.623 31.1023 139.312 31.0458 139.037 30.9329C138.762 30.8178 138.544 30.6591 138.382 30.4567C138.222 30.2521 138.138 30.0156 138.13 29.7472ZM144.328 31.1151C144.017 31.1151 143.735 31.0565 143.481 30.9393C143.228 30.82 143.026 30.6484 142.877 30.4247C142.728 30.1989 142.654 29.9261 142.654 29.6065C142.654 29.3253 142.709 29.0973 142.82 28.9226C142.931 28.7457 143.079 28.6072 143.264 28.5071C143.449 28.407 143.654 28.3324 143.878 28.2834C144.104 28.2322 144.33 28.1918 144.558 28.1619C144.857 28.1236 145.099 28.0948 145.284 28.0756C145.471 28.0543 145.608 28.0192 145.693 27.9702C145.78 27.9212 145.824 27.8359 145.824 27.7145V27.6889C145.824 27.3736 145.738 27.1286 145.565 26.9538C145.395 26.7791 145.136 26.6918 144.789 26.6918C144.428 26.6918 144.146 26.7706 143.942 26.9283C143.737 27.0859 143.593 27.2543 143.51 27.4332L142.794 27.1776C142.922 26.8793 143.093 26.647 143.306 26.4808C143.521 26.3125 143.755 26.1953 144.009 26.1293C144.264 26.0611 144.516 26.027 144.763 26.027C144.921 26.027 145.102 26.0462 145.306 26.0845C145.513 26.1207 145.712 26.1964 145.904 26.3114C146.098 26.4265 146.259 26.6001 146.387 26.8324C146.514 27.0646 146.578 27.3757 146.578 27.7656V31H145.824V30.3352H145.786C145.735 30.4418 145.649 30.5558 145.53 30.6772C145.411 30.7987 145.252 30.902 145.054 30.9872C144.856 31.0724 144.614 31.1151 144.328 31.1151ZM144.443 30.4375C144.742 30.4375 144.993 30.3789 145.198 30.2617C145.404 30.1445 145.56 29.9933 145.664 29.8079C145.771 29.6225 145.824 29.4276 145.824 29.223V28.5327C145.792 28.571 145.722 28.6062 145.613 28.6381C145.507 28.668 145.383 28.6946 145.242 28.718C145.104 28.7393 144.969 28.7585 144.836 28.7756C144.706 28.7905 144.601 28.8033 144.52 28.8139C144.324 28.8395 144.141 28.881 143.97 28.9386C143.802 28.994 143.666 29.0781 143.561 29.1911C143.459 29.3018 143.408 29.4531 143.408 29.6449C143.408 29.907 143.505 30.1051 143.699 30.2393C143.895 30.3714 144.143 30.4375 144.443 30.4375ZM151.598 24.25L151.982 24.7102C151.833 24.8551 151.66 24.9563 151.464 25.0138C151.268 25.0714 151.047 25.1065 150.799 25.1193C150.552 25.1321 150.277 25.1449 149.975 25.1577C149.634 25.1705 149.352 25.2536 149.128 25.407C148.904 25.5604 148.732 25.782 148.61 26.0717C148.489 26.3615 148.411 26.7173 148.377 27.1392H148.441C148.607 26.8324 148.837 26.6065 149.131 26.4616C149.425 26.3168 149.741 26.2443 150.077 26.2443C150.461 26.2443 150.806 26.3338 151.113 26.5128C151.419 26.6918 151.662 26.957 151.841 27.3086C152.02 27.6602 152.11 28.0938 152.11 28.6094C152.11 29.1229 152.018 29.5661 151.835 29.9389C151.654 30.3118 151.399 30.5994 151.071 30.8018C150.745 31.0021 150.363 31.1023 149.924 31.1023C149.485 31.1023 149.1 30.9989 148.77 30.7923C148.44 30.5835 148.183 30.2745 148 29.8654C147.816 29.4542 147.725 28.946 147.725 28.3409V27.8168C147.725 26.7237 147.91 25.8949 148.281 25.3303C148.654 24.7656 149.214 24.4737 149.962 24.4545C150.226 24.446 150.462 24.4439 150.668 24.4482C150.875 24.4524 151.055 24.4428 151.209 24.4194C151.362 24.396 151.492 24.3395 151.598 24.25ZM149.924 30.4247C150.22 30.4247 150.475 30.3501 150.688 30.201C150.903 30.0518 151.068 29.842 151.183 29.5714C151.298 29.2987 151.356 28.978 151.356 28.6094C151.356 28.2514 151.297 27.9467 151.18 27.6953C151.065 27.4439 150.9 27.2521 150.684 27.12C150.469 26.9879 150.211 26.9219 149.911 26.9219C149.691 26.9219 149.494 26.9592 149.32 27.0337C149.145 27.1083 148.996 27.218 148.872 27.3629C148.749 27.5078 148.653 27.6847 148.585 27.8935C148.519 28.1023 148.483 28.3409 148.479 28.6094C148.479 29.1591 148.608 29.5991 148.866 29.9293C149.124 30.2596 149.476 30.4247 149.924 30.4247ZM155.258 31.1023C154.815 31.1023 154.426 30.9968 154.091 30.7859C153.759 30.5749 153.499 30.2798 153.312 29.9006C153.126 29.5213 153.033 29.0781 153.033 28.571C153.033 28.0597 153.126 27.6133 153.312 27.2319C153.499 26.8505 153.759 26.5543 154.091 26.3434C154.426 26.1325 154.815 26.027 155.258 26.027C155.701 26.027 156.089 26.1325 156.421 26.3434C156.756 26.5543 157.016 26.8505 157.201 27.2319C157.389 27.6133 157.482 28.0597 157.482 28.571C157.482 29.0781 157.389 29.5213 157.201 29.9006C157.016 30.2798 156.756 30.5749 156.421 30.7859C156.089 30.9968 155.701 31.1023 155.258 31.1023ZM155.258 30.4247C155.595 30.4247 155.872 30.3384 156.089 30.1658C156.306 29.9933 156.467 29.7663 156.571 29.4851C156.676 29.2038 156.728 28.8991 156.728 28.571C156.728 28.2429 156.676 27.9371 156.571 27.6538C156.467 27.3704 156.306 27.1413 156.089 26.9666C155.872 26.7919 155.595 26.7045 155.258 26.7045C154.921 26.7045 154.644 26.7919 154.427 26.9666C154.21 27.1413 154.049 27.3704 153.944 27.6538C153.84 27.9371 153.788 28.2429 153.788 28.571C153.788 28.8991 153.84 29.2038 153.944 29.4851C154.049 29.7663 154.21 29.9933 154.427 30.1658C154.644 30.3384 154.921 30.4247 155.258 30.4247ZM157.992 26.794V26.0909H161.981V26.794H160.37V31H159.616V26.794H157.992ZM164.271 31.1151C163.96 31.1151 163.677 31.0565 163.424 30.9393C163.17 30.82 162.969 30.6484 162.82 30.4247C162.671 30.1989 162.596 29.9261 162.596 29.6065C162.596 29.3253 162.651 29.0973 162.762 28.9226C162.873 28.7457 163.021 28.6072 163.206 28.5071C163.392 28.407 163.596 28.3324 163.82 28.2834C164.046 28.2322 164.273 28.1918 164.501 28.1619C164.799 28.1236 165.041 28.0948 165.226 28.0756C165.414 28.0543 165.55 28.0192 165.635 27.9702C165.723 27.9212 165.766 27.8359 165.766 27.7145V27.6889C165.766 27.3736 165.68 27.1286 165.508 26.9538C165.337 26.7791 165.078 26.6918 164.731 26.6918C164.371 26.6918 164.089 26.7706 163.884 26.9283C163.679 27.0859 163.536 27.2543 163.453 27.4332L162.737 27.1776C162.864 26.8793 163.035 26.647 163.248 26.4808C163.463 26.3125 163.698 26.1953 163.951 26.1293C164.207 26.0611 164.458 26.027 164.705 26.027C164.863 26.027 165.044 26.0462 165.249 26.0845C165.455 26.1207 165.655 26.1964 165.846 26.3114C166.04 26.4265 166.201 26.6001 166.329 26.8324C166.457 27.0646 166.521 27.3757 166.521 27.7656V31H165.766V30.3352H165.728C165.677 30.4418 165.592 30.5558 165.472 30.6772C165.353 30.7987 165.194 30.902 164.996 30.9872C164.798 31.0724 164.556 31.1151 164.271 31.1151ZM164.386 30.4375C164.684 30.4375 164.935 30.3789 165.14 30.2617C165.347 30.1445 165.502 29.9933 165.607 29.8079C165.713 29.6225 165.766 29.4276 165.766 29.223V28.5327C165.734 28.571 165.664 28.6062 165.555 28.6381C165.449 28.668 165.325 28.6946 165.185 28.718C165.046 28.7393 164.911 28.7585 164.779 28.7756C164.649 28.7905 164.543 28.8033 164.462 28.8139C164.266 28.8395 164.083 28.881 163.913 28.9386C163.744 28.994 163.608 29.0781 163.504 29.1911C163.401 29.3018 163.35 29.4531 163.35 29.6449C163.35 29.907 163.447 30.1051 163.641 30.2393C163.837 30.3714 164.085 30.4375 164.386 30.4375ZM168.895 24.4545L168.831 29.1591H168.089L168.025 24.4545H168.895ZM168.46 31.0511C168.302 31.0511 168.167 30.9947 168.054 30.8817C167.941 30.7688 167.885 30.6335 167.885 30.4759C167.885 30.3182 167.941 30.1829 168.054 30.07C168.167 29.957 168.302 29.9006 168.46 29.9006C168.618 29.9006 168.753 29.957 168.866 30.07C168.979 30.1829 169.035 30.3182 169.035 30.4759C169.035 30.5803 169.009 30.6761 168.955 30.7635C168.904 30.8509 168.835 30.9212 168.748 30.9744C168.662 31.0256 168.566 31.0511 168.46 31.0511Z" fill="black"/>
<defs>
<filter id="filter0_d_1258_21088" x="0" y="0" width="40.4863" height="40" filterUnits="userSpaceOnUse" color-interpolation-filters="sRGB">
<feFlood flood-opacity="0" result="BackgroundImageFix"/>
<feColorMatrix in="SourceAlpha" type="matrix" values="0 0 0 0 0 0 0 0 0 0 0 0 0 0 0 0 0 0 127 0" result="hardAlpha"/>
<feOffset dy="2"/>
<feGaussianBlur stdDeviation="2"/>
<feComposite in2="hardAlpha" operator="out"/>
<feColorMatrix type="matrix" values="0 0 0 0 0.988235 0 0 0 0 0.807843 0 0 0 0 0.027451 0 0 0 0.25 0"/>
<feBlend mode="normal" in2="BackgroundImageFix" result="effect1_dropShadow_1258_21088"/>
<feBlend mode="normal" in="SourceGraphic" in2="effect1_dropShadow_1258_21088" result="shape"/>
</filter>
</defs>
</svg>
