<?xml version="1.0" encoding="utf-8"?>
<!-- Uploaded to: SVG Repo, www.svgrepo.com, Transformed by: SVG Repo Mixer Tools -->
<svg fill="#000000" version="1.1" id="Layer_1" xmlns="http://www.w3.org/2000/svg" xmlns:xlink="http://www.w3.org/1999/xlink" 
	 width="800px" height="800px" viewBox="0 0 260 196" enable-background="new 0 0 260 196" xml:space="preserve">
<path d="M98,54v-8H73.153c-0.596-3.416-1.941-6.576-3.86-9.306l17.806-17.806l-5.657-5.657L63.64,31.032
	c-2.818-1.987-6.095-3.365-9.64-3.935V2h-8v25.207c-3.307,0.623-6.367,1.95-9.021,3.82l-17.78-17.779l-5.656,5.657l17.781,17.78
	c-1.923,2.733-3.269,5.896-3.867,9.315H2v8h25.457c0.598,3.427,1.95,6.597,3.88,9.334L13.56,81.112l5.657,5.657l17.782-17.782
	c2.649,1.862,5.702,3.184,9.001,3.806V98h8V72.903c3.537-0.569,6.806-1.941,9.62-3.921l17.804,17.805l5.657-5.656L69.279,63.326
	c1.927-2.735,3.276-5.902,3.874-9.326H98z M50.305,34.8c8.381,0,15.2,6.819,15.2,15.2s-6.818,15.2-15.2,15.2s-15.2-6.819-15.2-15.2
	S41.924,34.8,50.305,34.8z M242,178v-64h-20v44l-36-36H74L2,194h128l56-56l56,56h16L242,178z M71.529,153H88.51l-10,10H61.529
	L71.529,153z M94.167,153h16.982l-10,10H84.166L94.167,153z M116.805,153h16.982l-10,10h-16.982L116.805,153z M137.787,149h-16.982
	l11-11h16.982L137.787,149z M115.148,149H98.167l11-11h16.981L115.148,149z M92.51,149H75.529l11-11h16.981L92.51,149z M57.529,167
	H74.51l-11,11H46.529L57.529,167z M80.166,167h16.982l-11,11H69.166L80.166,167z M102.804,167h16.982l-11,11H91.804L102.804,167z"/>
</svg>