<?xml version="1.0" encoding="iso-8859-1"?>
<!-- Uploaded to: SVG Repo, www.svgrepo.com, Transformed by: SVG Repo Mixer Tools -->
<svg fill="#000000" height="800px" width="800px" version="1.1" id="Layer_1" xmlns="http://www.w3.org/2000/svg" xmlns:xlink="http://www.w3.org/1999/xlink" 
	 viewBox="0 0 508.049 508.049" xml:space="preserve">
<g>
	<g>
		<path d="M493.849,479.812h-44.1v-30.1c0-7.8-6.3-14.1-14.1-14.1c-6.8,0-12.3-5.5-12.3-12.3v-133.4c0-6.8,5.5-12.3,12.3-12.3
			c7.8,0,14.1-6.3,14.1-14.1v-30.1h44.1c0.1,0,0.1,0,0.1,0c7.8,0,14.1-6.3,14.1-14.1c0-4.9-2.5-9.2-6.2-11.7l-238.7-204.2
			c-5.3-4.5-13.1-4.5-18.3,0l-239.9,205.2c-4.5,3.8-6.1,10.1-4.1,15.6s7.3,9.2,13.2,9.2h44.1v30.1c0,7.8,6.3,14.1,14.1,14.1
			c6.8,0,12.3,5.5,12.3,12.3v133.4c0,6.8-5.5,12.3-12.3,12.3c-7.8,0-14.1,6.3-14.1,14.1v30.1h-44c-7.8,0-14.1,6.3-14.1,14.1
			s6.3,14.1,14.1,14.1h479.6c7.8,0,14.1-6.3,14.1-14.1C507.949,486.112,501.549,479.812,493.849,479.812z M52.349,205.312v-0.1
			l201.6-172.5l201.6,172.6H52.349z M164.549,479.812h-78.1v-18.5c11-4.1,19.7-12.8,23.8-23.8h30.5c4.1,11,12.8,19.7,23.8,23.8
			V479.812z M112.849,409.212v-105.2h25.4v105.2H112.849z M164.549,252.012c-11,4.1-19.7,12.8-23.8,23.8h-30.5
			c-4.1-11-12.8-19.7-23.8-23.8v-18.5h78.1V252.012z M329.349,435.612c-7.8,0-14.1,6.3-14.1,14.1v30.1h-122.5v-30.1
			c0-7.8-6.3-14.1-14.1-14.1c-6.8,0-12.3-5.5-12.3-12.3v-133.4c0-6.8,5.5-12.3,12.3-12.3c7.8,0,14.1-6.3,14.1-14.1v-30.1h122.4v30.1
			c0,7.8,6.3,14.1,14.1,14.1c6.8,0,12.2,5.5,12.2,12.3v133.4h0.1C341.549,430.112,336.049,435.612,329.349,435.612z
			 M343.349,479.812v-18.5c11-4.1,19.7-12.8,23.8-23.8h30.5c4.1,11,12.8,19.7,23.8,23.8v18.5H343.349z M369.749,409.212v-105.2h25.4
			v105.2H369.749z M421.449,252.012c-11,4.1-19.7,12.8-23.8,23.8h-30.5c-4.1-11-12.8-19.7-23.8-23.8v-18.5h78.1V252.012z"/>
	</g>
</g>
<g>
	<g>
		<path d="M253.949,87.512c-23.3,0-42.3,19-42.3,42.3s19,42.3,42.3,42.3c23.3,0,42.3-19,42.3-42.3S277.349,87.512,253.949,87.512z
			 M253.949,143.912c-7.8,0-14.1-6.3-14.1-14.1s6.3-14.1,14.1-14.1c7.8,0,14.1,6.3,14.1,14.1S261.749,143.912,253.949,143.912z"/>
	</g>
</g>
</svg>