<?xml version="1.0" encoding="iso-8859-1"?>
<!-- Uploaded to: SVG Repo, www.svgrepo.com, Transformed by: SVG Repo Mixer Tools -->
<svg fill="#000000" height="800px" width="800px" version="1.1" id="Layer_1" xmlns="http://www.w3.org/2000/svg" xmlns:xlink="http://www.w3.org/1999/xlink" 
	 viewBox="0 0 512 512" xml:space="preserve">
<g>
	<g>
		<path d="M219.358,220.057c0.004,0.01,0.01,0.02,0.014,0.029v-0.001C219.368,220.076,219.364,220.067,219.358,220.057z"/>
	</g>
</g>
<g>
	<g>
		<path d="M219.252,219.84L219.252,219.84C219.252,219.839,219.252,219.839,219.252,219.84z"/>
	</g>
</g>
<g>
	<g>
		<path d="M246.787,214.641h-3.238l4.608-9.133c0.721-1.429-0.319-3.124-1.923-3.124h-13.18c-1.601,0-2.645,1.692-1.923,3.124
			l4.608,9.133h-6.74l-8.661-17.713c-1.339-2.738-4.642-3.872-7.384-2.533c-2.738,1.339-3.873,4.644-2.533,7.384
			c6.359,13.003,8.313,17,8.833,18.063c0,0,0.001,0.001,0.002,0.004c-0.001-0.001-0.001-0.003-0.002-0.003
			c0.003,0.004,0.005,0.009,0.007,0.013c0.002,0.005,0.006,0.012,0.01,0.02c-0.001-0.002-0.002-0.003-0.002-0.006
			c0.038,0.078,0.069,0.141,0.092,0.188c-0.002-0.004-0.004-0.009-0.007-0.013c0.007,0.013,0.013,0.027,0.02,0.041
			c0.001,0.001,0.001,0.003,0.002,0.004c-0.001-0.001-0.001-0.002-0.002-0.003c0.009,0.017,0.018,0.036,0.027,0.056
			c0.001,0.002,0.002,0.004,0.003,0.007c-0.001-0.001-0.001-0.003-0.002-0.004c0.002,0.006,0.004,0.01,0.008,0.016
			c0.009,0.018,0.012,0.026,0.012,0.024c0.144,0.295,0.398,0.812,0.823,1.684v11.032c-1.348-0.1,4.159-0.069-63.919-0.069
			l-25.763-46.176l28.046,32.817l0.486-30.836c0.266-16.921-13.326-30.822-30.241-30.942l-13.02-0.094
			c-25.198-0.18-45.712,20.252-45.643,45.441l0.242,88.317c0.022,8.104,3.273,15.865,9.032,21.566
			c4.063,4.022,9.141,6.778,14.623,8.035H55.798L29.836,188.889c-1.604-8.16-9.522-13.474-17.68-11.871
			c-8.16,1.604-13.475,9.519-11.871,17.68l28.351,144.227c1.388,7.062,7.579,12.154,14.775,12.154h2.592l-32.036,83.067
			c-1.995,5.174,0.581,10.983,5.754,12.978c5.176,1.995,10.985-0.584,12.978-5.754l34.822-90.293h57.185l19.668,50.999l-6.31,15.945
			c-4.436,11.21,1.056,23.895,12.267,28.331c11.205,4.435,23.892-1.052,28.331-12.266c4.338-10.962,43.94-111.04,48.288-122.029
			h-36.411v0.002c-16.202,0-29.476-13.417-28.94-29.916c-4.155,0-16.961,0-21.825,0c-10.373,0-19.101-7.061-21.669-16.622
			l-13.7-51.071l25.351,45.436c3.213,5.758,9.291,9.329,15.886,9.329h19.483c4.925-8.981,14.469-15.085,25.414-15.085
			c12.094,0,47.125,0,59.312,0c0.101-1.022,0.155-2.059,0.155-3.107c0-3.907-0.726-7.643-2.042-11.089
			c2.51-0.541,4.394-2.769,4.394-5.441v-14.281C252.359,217.135,249.864,214.641,246.787,214.641z M148.818,351.078
			c8.316,0,15.058-6.742,15.058-15.058c0-5.696-3.164-10.651-7.829-13.209l19.717-0.058l-20.491,51.784l-9.047-23.459H148.818z"/>
	</g>
</g>
<g>
	<g>
		<path d="M219.408,220.158c-0.001-0.003-0.003-0.007-0.006-0.011c0.01,0.021,0.017,0.035,0.018,0.036
			C219.416,220.174,219.413,220.166,219.408,220.158z"/>
	</g>
</g>
<g>
	<g>
		<path d="M219.267,219.869c-0.002-0.003-0.003-0.008-0.006-0.011C219.262,219.861,219.264,219.864,219.267,219.869z"/>
	</g>
</g>
<g>
	<g>
		<circle cx="138.528" cy="103.615" r="40.149"/>
	</g>
</g>
<g>
	<g>
		<polygon points="292.921,320.352 277.156,360.162 277.156,406.173 305.892,406.173 316.392,379.663 		"/>
	</g>
</g>
<g>
	<g>
		<path d="M482.593,154.566c-3.193,0.243-6.237,0.18-8.939-5.323c-3.84-7.854-4.199-22.524-4.368-31.307
			c-0.311-15.133-1.53-22.541-5.953-27.961c-5.092-5.902-11.707-8.729-18.268-8.997c-5.697-0.307-11.219,1.012-16.376,3.231
			c-7.9-14.31-24.124-22.9-41.224-20.287c-21.921,3.349-36.977,23.833-33.629,45.754c3.349,21.921,23.833,36.977,45.755,33.628
			c16.931-2.586,29.757-15.397,33.181-31.195c0,0,3.607-12.352,12.984-7.432c4.292,2.529,6.393,14.466,6.634,15.464
			c3.005,12.492,6.74,26.309,13.303,34.448c5.619,6.94,11.647,8.015,18.056,6.018c1.347-0.419,2.277-1.723,2.166-3.189
			C485.784,155.712,484.297,154.437,482.593,154.566z"/>
	</g>
</g>
<g>
	<g>
		<path d="M333.524,280.848h-23.536c-11.059,0-20.762-5.773-26.282-14.464h-93.166c-9.229,0-16.71,7.482-16.71,16.71
			s7.482,16.71,16.71,16.71h52.081v118.624h-34.703c-8.316,0-15.058,6.742-15.058,15.058s6.742,15.058,15.058,15.058h91.687
			c8.316,0,15.058-6.742,15.058-15.058s-6.742-15.059-15.058-15.059h-34.704V299.804h52.081
			C326.892,299.804,334.908,291.12,333.524,280.848z"/>
	</g>
</g>
<g>
	<g>
		<path d="M499.842,177.018c-8.162-1.601-16.075,3.711-17.68,11.871l-20.68,105.203c0.192-2.06,0.116,4.448,0.374-89.892
			c0.071-25.838-20.973-46.774-46.796-46.589l-11.863,0.085c-16.923,0.121-30.508,14.028-30.241,30.942l0.408,25.917l24.946-29.191
			l-25.761,46.174h-62.562c-10.047,0-18.192,8.145-18.192,18.192c0,10.047,8.145,18.192,18.192,18.192h73.245
			c6.595,0,12.673-3.569,15.886-9.329l25.35-45.437l-13.699,51.071c-2.687,10.018-11.747,16.625-21.648,16.628
			c-7.619-0.007-0.218-0.006-43.27-0.006c1.311,16.998-12.181,31.21-28.869,31.21h-11.882l48.288,122.029
			c4.436,11.21,17.118,16.703,28.331,12.266c11.21-4.436,16.703-17.12,12.266-28.331l-8.002-20.222
			c6.066-15.729,11.998-31.109,18.019-46.722h23.764l34.822,90.293c1.996,5.177,7.81,7.747,12.978,5.754
			c5.172-1.995,7.749-7.806,5.754-12.978l-32.036-83.067h19.303c7.197,0,13.387-5.092,14.775-12.154l28.351-144.227
			C513.317,186.537,508.002,178.622,499.842,177.018z M375.085,370.261l-7.591-19.182h14.988L375.085,370.261z M456.201,320.962
			c-6.583,0-11.364,0-18.237,0c5.482-1.258,10.56-4.014,14.623-8.035c3.085-3.054,5.442-6.702,6.977-10.675
			C459.488,304.715,459.705,303.135,456.201,320.962z"/>
	</g>
</g>
</svg>