<?xml version="1.0" ?>
<!-- Uploaded to: SVG Repo, www.svgrepo.com, Transformed by: SVG Repo Mixer Tools -->
<svg width="800px" height="800px" viewBox="0 0 64 64" id="svg5" version="1.1" xml:space="preserve" xmlns="http://www.w3.org/2000/svg" xmlns:svg="http://www.w3.org/2000/svg">
<defs id="defs2"/>
<g id="layer1" transform="translate(-384)">
<path d="m 416,15 a 1,1 0 0 0 -1,1 v 2.132812 l -1.44531,-0.964843 a 1,1 0 0 0 -1.38672,0.277343 1,1 0 0 0 0.27734,1.386719 L 415,20.535156 v 1.597656 l -1.44531,-0.964843 a 1,1 0 0 0 -1.38672,0.277343 1,1 0 0 0 0.27734,1.386719 L 415,24.535156 v 8.050782 l -3.57031,-3.570313 0.60156,-3.011719 a 1,1 0 0 0 -0.78516,-1.177734 1,1 0 0 0 -1.17578,0.785156 l -0.33984,1.705078 -1.12891,-1.128906 0.60156,-3.011719 a 1,1 0 0 0 -0.78515,-1.177734 1,1 0 0 0 -1.17578,0.785156 l -0.3418,1.703125 -1.50781,-1.507812 a 1,1 0 0 0 -0.70703,-0.292969 1,1 0 0 0 -0.70703,0.292969 1,1 0 0 0 0,1.414062 l 1.50781,1.507813 -1.70313,0.341797 a 1,1 0 0 0 -0.78515,1.175781 1,1 0 0 0 1.17773,0.785156 l 3.01172,-0.601563 1.12891,1.128907 -1.70508,0.339843 a 1,1 0 0 0 -0.78516,1.175782 1,1 0 0 0 1.17774,0.785156 L 410.01562,30.429688 413.58594,34 h -8.05078 l -1.70313,-2.554688 a 1,1 0 0 0 -1.38672,-0.277343 1,1 0 0 0 -0.27734,1.386719 L 403.13281,34 h -1.59765 l -1.70313,-2.554688 a 1,1 0 0 0 -1.38672,-0.277343 1,1 0 0 0 -0.27734,1.386719 L 399.13281,34 H 397 a 1,1 0 0 0 -1,1 1,1 0 0 0 1,1 h 2.13281 l -0.96484,1.445312 a 1,1 0 0 0 0.27734,1.386719 1,1 0 0 0 1.38672,-0.277343 L 401.53516,36 h 1.59765 l -0.96484,1.445312 a 1,1 0 0 0 0.27734,1.386719 1,1 0 0 0 1.38672,-0.277343 L 405.53516,36 h 8.05078 l -3.57032,3.570312 -3.01171,-0.601562 a 1,1 0 0 0 -1.17774,0.785156 1,1 0 0 0 0.78516,1.175782 l 1.70508,0.339843 -1.12891,1.128907 -3.01172,-0.601563 a 1,1 0 0 0 -1.17773,0.785156 1,1 0 0 0 0.78515,1.175781 l 1.70313,0.341797 -1.50781,1.507813 a 1,1 0 0 0 0,1.414062 1,1 0 0 0 1.41406,0 l 1.50781,-1.507812 0.3418,1.703125 a 1,1 0 0 0 1.17578,0.785156 1,1 0 0 0 0.78515,-1.177734 l -0.60156,-3.011719 1.12891,-1.128906 0.33984,1.705078 a 1,1 0 0 0 1.17578,0.785156 1,1 0 0 0 0.78516,-1.177734 L 411.42969,40.984375 415,37.414062 v 8.050782 l -2.55469,1.703125 a 1,1 0 0 0 -0.27734,1.386719 1,1 0 0 0 1.38672,0.277343 L 415,47.867188 v 1.597656 l -2.55469,1.703125 a 1,1 0 0 0 -0.27734,1.386719 1,1 0 0 0 1.38672,0.277343 L 415,51.867188 V 54 a 1,1 0 0 0 1,1 1,1 0 0 0 1,-1 v -2.132812 l 1.44531,0.964843 a 1,1 0 0 0 1.38672,-0.277343 1,1 0 0 0 -0.27734,-1.386719 L 417,49.464844 v -1.597656 l 1.44531,0.964843 a 1,1 0 0 0 1.38672,-0.277343 1,1 0 0 0 -0.27734,-1.386719 L 417,45.464844 v -8.050782 l 3.57031,3.570313 -0.60156,3.011719 a 1,1 0 0 0 0.78516,1.177734 1,1 0 0 0 1.17578,-0.785156 l 0.33984,-1.705078 1.12891,1.128906 -0.60156,3.011719 a 1,1 0 0 0 0.78515,1.177734 1,1 0 0 0 1.17578,-0.785156 l 0.3418,-1.703125 1.50781,1.507812 a 1,1 0 0 0 1.41406,0 1,1 0 0 0 0,-1.414062 l -1.50781,-1.507813 1.70313,-0.341797 a 1,1 0 0 0 0.78515,-1.175781 1,1 0 0 0 -1.17773,-0.785156 l -3.01172,0.601563 -1.12891,-1.128907 1.70508,-0.339843 a 1,1 0 0 0 0.78516,-1.175782 1,1 0 0 0 -1.17774,-0.785156 L 421.98438,39.570312 418.41406,36 h 8.05078 l 1.70313,2.554688 a 1,1 0 0 0 1.38672,0.277343 1,1 0 0 0 0.27734,-1.386719 L 428.86719,36 h 1.59765 l 1.70313,2.554688 a 1,1 0 0 0 1.38672,0.277343 1,1 0 0 0 0.27734,-1.386719 L 432.86719,36 H 435 a 1,1 0 0 0 1,-1 1,1 0 0 0 -1,-1 h -2.13281 l 0.96484,-1.445312 a 1,1 0 0 0 -0.27734,-1.386719 1,1 0 0 0 -1.38672,0.277343 L 430.46484,34 h -1.59765 l 0.96484,-1.445312 a 1,1 0 0 0 -0.27734,-1.386719 1,1 0 0 0 -1.38672,0.277343 L 426.46484,34 h -8.05078 l 3.57032,-3.570312 3.01171,0.601562 a 1,1 0 0 0 1.17774,-0.785156 1,1 0 0 0 -0.78516,-1.175782 l -1.70508,-0.339843 1.12891,-1.128907 3.01172,0.601563 a 1,1 0 0 0 1.17773,-0.785156 1,1 0 0 0 -0.78515,-1.175781 l -1.70313,-0.341797 1.50781,-1.507813 a 1,1 0 0 0 0,-1.414062 1,1 0 0 0 -0.70703,-0.292969 1,1 0 0 0 -0.70703,0.292969 l -1.50781,1.507812 -0.3418,-1.703125 a 1,1 0 0 0 -1.17578,-0.785156 1,1 0 0 0 -0.78515,1.177734 l 0.60156,3.011719 -1.12891,1.128906 -0.33984,-1.705078 a 1,1 0 0 0 -1.17578,-0.785156 1,1 0 0 0 -0.78516,1.177734 l 0.60156,3.011719 L 417,32.585938 v -8.050782 l 2.55469,-1.703125 a 1,1 0 0 0 0.27734,-1.386719 1,1 0 0 0 -1.38672,-0.277343 L 417,22.132812 v -1.597656 l 2.55469,-1.703125 a 1,1 0 0 0 0.27734,-1.386719 1,1 0 0 0 -1.38672,-0.277343 L 417,18.132812 V 16 a 1,1 0 0 0 -1,-1 z" id="path66354" style="color:#000000;fill:#000000;fill-rule:evenodd;stroke-linecap:round;stroke-linejoin:round;stroke-miterlimit:4.1;-inkscape-stroke:none"/>
<path d="m 413,4 c -1.0907,0 -2,0.9092994 -2,2 v 4 c 0,0.16895 0.0235,0.332695 0.0645,0.490234 C 399.62891,12.785235 391,22.894263 391,35 c 0,13.795252 11.20474,25 25,25 13.79526,0 25,-11.204748 25,-25 C 441,22.894263 432.37109,12.785235 420.93555,10.490234 420.97648,10.332695 421,10.16895 421,10 V 6 c 0,-1.0907006 -0.9093,-2 -2,-2 z m 0,2 h 6 v 4 h -6 z m 3,6 c 12.71438,0 23,10.285627 23,23 0,12.714373 -10.28562,23 -23,23 -12.71438,0 -23,-10.285627 -23,-23 0,-12.714373 10.28562,-23 23,-23 z" id="path12842" style="color:#000000;fill:#000000;fill-rule:evenodd;stroke-linecap:round;stroke-linejoin:round;stroke-miterlimit:4.1;-inkscape-stroke:none"/>
</g>
</svg>