<svg width="253" height="34" viewBox="0 0 253 34" fill="none" xmlns="http://www.w3.org/2000/svg">
<g clip-path="url(#clip0_1321_12088)">
<path fill-rule="evenodd" clip-rule="evenodd" d="M88 16.8064C88 24.967 81.2843 31.5825 73 31.5825C64.7157 31.5825 58 24.967 58 16.8064C58 8.64577 64.7157 2.03027 73 2.03027C81.2843 2.03027 88 8.64577 88 16.8064ZM73 30.2392C80.5311 30.2392 86.6364 24.2251 86.6364 16.8064C86.6364 9.38763 80.5311 3.37356 73 3.37356C65.4689 3.37356 59.3636 9.38763 59.3636 16.8064C59.3636 24.2251 65.4689 30.2392 73 30.2392Z" fill="white"/>
<path d="M86.5205 15.0401C84.4032 14.7512 82.5828 14.9205 81.0491 15.3039C79.0569 15.8022 77.6152 16.6503 76.7758 17.1437L76.6808 17.1997C76.4095 17.3589 76.1636 17.508 75.9373 17.6455C74.661 18.4199 73.9868 18.829 72.8056 18.583C72.292 18.4761 71.9462 18.252 71.3891 17.4852C71.1046 17.0937 70.8121 16.6262 70.4281 16.0114L70.3478 15.8833C69.9358 15.2241 69.4471 14.4491 68.8368 13.5842C67.2547 11.3419 65.0122 10.6243 62.8198 10.5506C62.1886 10.5294 61.5396 10.5613 60.8906 10.6256C63.1616 6.317 67.7323 3.37354 73.0009 3.37354C79.9243 3.37354 85.6425 8.45613 86.5205 15.0401Z" fill="#FCCE07"/>
<path d="M86.5067 18.6639C85.5884 25.2036 79.891 30.2392 72.9996 30.2392C65.4685 30.2392 59.3633 24.2251 59.3633 16.8064C59.3633 15.994 59.4365 15.1985 59.5767 14.4259C60.7051 14.2307 61.7353 14.0983 62.6946 14.1306C64.1185 14.1784 65.1115 14.5825 65.8495 15.6285C66.3992 16.4075 66.8441 17.1119 67.2506 17.7619L67.3499 17.9209C67.7105 18.4983 68.0687 19.0719 68.4308 19.5702C69.2726 20.7287 70.3099 21.725 72.0528 22.0877C74.7778 22.6549 76.7796 21.386 78.0374 20.5889C78.221 20.4725 78.3887 20.3662 78.5405 20.2771L78.5966 20.2442C79.4096 19.7668 80.47 19.1441 81.9428 18.7758C83.1326 18.4783 84.638 18.338 86.5067 18.6639Z" fill="black"/>
<path d="M86.5081 18.6638C86.5933 18.0566 86.6374 17.4365 86.6374 16.8062C86.6374 16.2075 86.5977 15.6179 86.5207 15.0399C84.4033 14.7511 82.5829 14.9203 81.0492 15.3038C79.057 15.802 77.6153 16.6501 76.7759 17.1436L76.6809 17.1996C76.4097 17.3587 76.1637 17.5078 75.9374 17.6453C74.6612 18.4197 73.9869 18.8288 72.8057 18.5829C72.2921 18.4759 71.9463 18.2518 71.3892 17.4851C71.1047 17.0935 70.8122 16.6261 70.4282 16.0113L70.3479 15.8832C69.9359 15.224 69.4472 14.4489 68.8369 13.584C67.2548 11.3417 65.0123 10.6241 62.8199 10.5505C62.1887 10.5293 61.5397 10.5612 60.8908 10.6255C60.2711 11.8013 59.8227 13.0786 59.5781 14.4257C60.7065 14.2306 61.7367 14.0982 62.696 14.1304C64.1198 14.1782 65.1128 14.5823 65.8509 15.6283C66.4006 16.4074 66.8455 17.1117 67.2519 17.7618L67.3512 17.9208C67.7118 18.4981 68.0701 19.0718 68.4322 19.5701C69.274 20.7285 70.3113 21.7249 72.0542 22.0876C74.7792 22.6547 76.781 21.3859 78.0388 20.5887C78.2223 20.4723 78.3901 20.3661 78.5418 20.277L78.598 20.244C79.4109 19.7667 80.4713 19.144 81.9442 18.7757C83.1339 18.4781 84.6394 18.3378 86.5081 18.6638Z" fill="white"/>
</g>
<path d="M6.526 24.556C7.70467 24.556 8.56267 24.3567 9.1 23.958C9.63733 23.5593 9.906 22.996 9.906 22.268C9.906 21.8347 9.81067 21.462 9.62 21.15C9.44667 20.838 9.18667 20.5607 8.84 20.318C8.51067 20.058 8.10333 19.824 7.618 19.616C7.13267 19.3907 6.578 19.174 5.954 18.966C5.33 18.7407 4.72333 18.498 4.134 18.238C3.562 17.9607 3.05067 17.6227 2.6 17.224C2.16667 16.8253 1.81133 16.3487 1.534 15.794C1.274 15.2393 1.144 14.572 1.144 13.792C1.144 12.1627 1.70733 10.8887 2.834 9.97C3.96067 9.034 5.49467 8.566 7.436 8.566C8.56267 8.566 9.55933 8.696 10.426 8.956C11.31 9.19867 12.0033 9.46733 12.506 9.762L11.492 12.414C10.9027 12.0847 10.2527 11.8333 9.542 11.66C8.84867 11.4867 8.12933 11.4 7.384 11.4C6.5 11.4 5.80667 11.582 5.304 11.946C4.81867 12.31 4.576 12.8213 4.576 13.48C4.576 13.8787 4.654 14.2253 4.81 14.52C4.98333 14.7973 5.21733 15.0487 5.512 15.274C5.824 15.4993 6.17933 15.7073 6.578 15.898C6.994 16.0887 7.44467 16.2707 7.93 16.444C8.77933 16.756 9.53333 17.0767 10.192 17.406C10.868 17.718 11.4313 18.0993 11.882 18.55C12.35 18.9833 12.7053 19.5033 12.948 20.11C13.1907 20.6993 13.312 21.4187 13.312 22.268C13.312 23.8973 12.7313 25.1627 11.57 26.064C10.426 26.948 8.74467 27.39 6.526 27.39C5.78067 27.39 5.096 27.338 4.472 27.234C3.86533 27.1473 3.31933 27.0347 2.834 26.896C2.366 26.7573 1.95867 26.6187 1.612 26.48C1.26533 26.324 0.988 26.1853 0.78 26.064L1.742 23.386C2.21 23.646 2.84267 23.906 3.64 24.166C4.43733 24.426 5.39933 24.556 6.526 24.556ZM21.295 8.8C23.9123 8.8 25.9143 9.27667 27.301 10.23C28.705 11.1833 29.407 12.674 29.407 14.702C29.407 15.7593 29.2163 16.6693 28.835 17.432C28.471 18.1773 27.9337 18.7927 27.223 19.278C26.5123 19.746 25.6457 20.0927 24.623 20.318C23.6003 20.5433 22.4303 20.656 21.113 20.656H19.475V27H16.199V9.242C16.9617 9.06867 17.8023 8.956 18.721 8.904C19.657 8.83467 20.515 8.8 21.295 8.8ZM21.529 11.634C20.697 11.634 20.0123 11.66 19.475 11.712V17.848H21.061C22.6383 17.848 23.8517 17.6313 24.701 17.198C25.5503 16.7473 25.975 15.9067 25.975 14.676C25.975 14.0867 25.8623 13.5927 25.637 13.194C25.4117 12.7953 25.0997 12.4833 24.701 12.258C24.3023 12.0327 23.8257 11.8767 23.271 11.79C22.7337 11.686 22.153 11.634 21.529 11.634ZM37.8322 27.208C36.8789 27.208 35.9169 27.1733 34.9462 27.104C33.9756 27.052 33.1262 26.9307 32.3982 26.74V9.242C32.7796 9.17267 33.1869 9.112 33.6202 9.06C34.0536 8.99067 34.4956 8.93867 34.9462 8.904C35.3969 8.86933 35.8389 8.84333 36.2722 8.826C36.7229 8.80867 37.1476 8.8 37.5462 8.8C38.6382 8.8 39.6522 8.88667 40.5882 9.06C41.5242 9.216 42.3302 9.48467 43.0062 9.866C43.6996 10.2473 44.2369 10.75 44.6182 11.374C44.9996 11.998 45.1902 12.7693 45.1902 13.688C45.1902 14.5373 44.9822 15.2653 44.5662 15.872C44.1676 16.4787 43.6042 16.964 42.8762 17.328C43.9682 17.692 44.7742 18.2293 45.2942 18.94C45.8142 19.6507 46.0742 20.552 46.0742 21.644C46.0742 23.4987 45.3982 24.894 44.0462 25.83C42.6942 26.7487 40.6229 27.208 37.8322 27.208ZM35.6222 18.888V24.374C35.9862 24.4087 36.3762 24.4347 36.7922 24.452C37.2082 24.4693 37.5896 24.478 37.9362 24.478C38.6122 24.478 39.2362 24.4347 39.8082 24.348C40.3976 24.2613 40.9002 24.114 41.3162 23.906C41.7496 23.6807 42.0876 23.386 42.3302 23.022C42.5902 22.658 42.7202 22.19 42.7202 21.618C42.7202 20.5953 42.3476 19.8847 41.6022 19.486C40.8569 19.0873 39.8256 18.888 38.5082 18.888H35.6222ZM35.6222 16.314H37.9362C39.1842 16.314 40.1636 16.1407 40.8742 15.794C41.5849 15.43 41.9402 14.7887 41.9402 13.87C41.9402 13.0033 41.5676 12.388 40.8222 12.024C40.0942 11.66 39.1409 11.478 37.9622 11.478C37.4596 11.478 37.0089 11.4867 36.6102 11.504C36.2289 11.5213 35.8996 11.5473 35.6222 11.582V16.314Z" fill="black"/>
<path d="M112.716 8.982V11.816H107.178V27H103.876V11.816H98.338V8.982H112.716ZM121.867 16.236C121.607 16.1493 121.243 16.0627 120.775 15.976C120.325 15.872 119.796 15.82 119.189 15.82C118.843 15.82 118.47 15.8547 118.071 15.924C117.69 15.9933 117.421 16.054 117.265 16.106V27H114.119V14.052C114.726 13.8267 115.48 13.6187 116.381 13.428C117.3 13.22 118.314 13.116 119.423 13.116C119.631 13.116 119.874 13.1333 120.151 13.168C120.429 13.1853 120.706 13.22 120.983 13.272C121.261 13.3067 121.529 13.3587 121.789 13.428C122.049 13.48 122.257 13.532 122.413 13.584L121.867 16.236ZM129.39 24.79C130.36 24.79 131.097 24.738 131.6 24.634V21.15C131.426 21.098 131.175 21.046 130.846 20.994C130.516 20.942 130.152 20.916 129.754 20.916C129.407 20.916 129.052 20.942 128.688 20.994C128.341 21.046 128.02 21.1413 127.726 21.28C127.448 21.4187 127.223 21.618 127.05 21.878C126.876 22.1207 126.79 22.4327 126.79 22.814C126.79 23.5593 127.024 24.0793 127.492 24.374C127.96 24.6513 128.592 24.79 129.39 24.79ZM129.13 13.064C130.17 13.064 131.045 13.194 131.756 13.454C132.466 13.714 133.03 14.078 133.446 14.546C133.879 15.014 134.182 15.586 134.356 16.262C134.546 16.9207 134.642 17.6487 134.642 18.446V26.688C134.156 26.792 133.42 26.9133 132.432 27.052C131.461 27.208 130.36 27.286 129.13 27.286C128.315 27.286 127.57 27.208 126.894 27.052C126.218 26.896 125.637 26.6447 125.152 26.298C124.684 25.9513 124.311 25.5007 124.034 24.946C123.774 24.3913 123.644 23.7067 123.644 22.892C123.644 22.112 123.791 21.4533 124.086 20.916C124.398 20.3787 124.814 19.9453 125.334 19.616C125.854 19.2693 126.452 19.0267 127.128 18.888C127.821 18.732 128.54 18.654 129.286 18.654C129.632 18.654 129.996 18.68 130.378 18.732C130.759 18.7667 131.166 18.836 131.6 18.94V18.42C131.6 18.056 131.556 17.7093 131.47 17.38C131.383 17.0507 131.227 16.7647 131.002 16.522C130.794 16.262 130.508 16.0627 130.144 15.924C129.797 15.7853 129.355 15.716 128.818 15.716C128.09 15.716 127.422 15.768 126.816 15.872C126.209 15.976 125.715 16.0973 125.334 16.236L124.944 13.688C125.342 13.5493 125.923 13.4107 126.686 13.272C127.448 13.1333 128.263 13.064 129.13 13.064ZM141.648 27C140.781 25.2147 139.889 23.1693 138.97 20.864C138.069 18.5413 137.245 16.054 136.5 13.402H139.854C140.045 14.1647 140.261 14.988 140.504 15.872C140.764 16.7387 141.033 17.614 141.31 18.498C141.605 19.3647 141.899 20.214 142.194 21.046C142.506 21.8607 142.792 22.5973 143.052 23.256C143.312 22.5973 143.589 21.8607 143.884 21.046C144.179 20.214 144.465 19.3647 144.742 18.498C145.037 17.614 145.314 16.7387 145.574 15.872C145.834 14.988 146.059 14.1647 146.25 13.402H149.5C148.755 16.054 147.923 18.5413 147.004 20.864C146.103 23.1693 145.219 25.2147 144.352 27H141.648ZM150.791 20.266C150.791 19.07 150.964 18.0213 151.311 17.12C151.675 16.2187 152.152 15.4733 152.741 14.884C153.33 14.2773 154.006 13.8267 154.769 13.532C155.532 13.22 156.312 13.064 157.109 13.064C158.981 13.064 160.437 13.6447 161.477 14.806C162.534 15.9673 163.063 17.7007 163.063 20.006C163.063 20.1793 163.054 20.3787 163.037 20.604C163.037 20.812 163.028 21.0027 163.011 21.176H154.041C154.128 22.268 154.509 23.1173 155.185 23.724C155.878 24.3133 156.875 24.608 158.175 24.608C158.938 24.608 159.631 24.5387 160.255 24.4C160.896 24.2613 161.399 24.114 161.763 23.958L162.179 26.532C162.006 26.6187 161.763 26.714 161.451 26.818C161.156 26.9047 160.81 26.9827 160.411 27.052C160.03 27.1387 159.614 27.208 159.163 27.26C158.712 27.312 158.253 27.338 157.785 27.338C156.589 27.338 155.549 27.1647 154.665 26.818C153.781 26.454 153.053 25.96 152.481 25.336C151.909 24.6947 151.484 23.9493 151.207 23.1C150.93 22.2333 150.791 21.2887 150.791 20.266ZM159.917 18.862C159.917 18.4287 159.856 18.0213 159.735 17.64C159.614 17.2413 159.432 16.9033 159.189 16.626C158.964 16.3313 158.678 16.106 158.331 15.95C158.002 15.7767 157.603 15.69 157.135 15.69C156.65 15.69 156.225 15.7853 155.861 15.976C155.497 16.1493 155.185 16.3833 154.925 16.678C154.682 16.9727 154.492 17.3107 154.353 17.692C154.214 18.0733 154.119 18.4633 154.067 18.862H159.917ZM171.13 27.26C170.194 27.2427 169.414 27.1387 168.79 26.948C168.184 26.7573 167.698 26.4887 167.334 26.142C166.97 25.778 166.71 25.336 166.554 24.816C166.416 24.2787 166.346 23.672 166.346 22.996V7.344L169.492 6.824V22.398C169.492 22.7793 169.518 23.1 169.57 23.36C169.64 23.62 169.752 23.8453 169.908 24.036C170.064 24.2093 170.272 24.348 170.532 24.452C170.81 24.5387 171.156 24.608 171.572 24.66L171.13 27.26ZM188.766 11.452C186.911 11.452 185.49 12.0327 184.502 13.194C183.531 14.338 183.046 15.9327 183.046 17.978C183.046 18.9487 183.158 19.8413 183.384 20.656C183.626 21.4533 183.973 22.138 184.424 22.71C184.892 23.282 185.464 23.7327 186.14 24.062C186.833 24.374 187.639 24.53 188.558 24.53C189.13 24.53 189.624 24.5127 190.04 24.478C190.456 24.426 190.785 24.3653 191.028 24.296V17.822H194.304V26.48C193.853 26.6533 193.09 26.844 192.016 27.052C190.941 27.26 189.702 27.364 188.298 27.364C186.998 27.364 185.81 27.156 184.736 26.74C183.661 26.324 182.742 25.7173 181.98 24.92C181.234 24.1227 180.654 23.1433 180.238 21.982C179.822 20.8207 179.614 19.486 179.614 17.978C179.614 16.47 179.839 15.1353 180.29 13.974C180.758 12.8127 181.39 11.8333 182.188 11.036C182.985 10.2213 183.921 9.606 184.996 9.19C186.07 8.774 187.214 8.566 188.428 8.566C189.26 8.566 189.996 8.62667 190.638 8.748C191.296 8.852 191.86 8.97333 192.328 9.112C192.796 9.25067 193.177 9.398 193.472 9.554C193.784 9.71 194 9.82267 194.122 9.892L193.134 12.57C192.614 12.258 191.964 11.998 191.184 11.79C190.421 11.5647 189.615 11.452 188.766 11.452ZM205.682 16.236C205.422 16.1493 205.058 16.0627 204.59 15.976C204.139 15.872 203.61 15.82 203.004 15.82C202.657 15.82 202.284 15.8547 201.886 15.924C201.504 15.9933 201.236 16.054 201.08 16.106V27H197.934V14.052C198.54 13.8267 199.294 13.6187 200.196 13.428C201.114 13.22 202.128 13.116 203.238 13.116C203.446 13.116 203.688 13.1333 203.966 13.168C204.243 13.1853 204.52 13.22 204.798 13.272C205.075 13.3067 205.344 13.3587 205.604 13.428C205.864 13.48 206.072 13.532 206.228 13.584L205.682 16.236ZM220.718 20.188C220.718 21.2627 220.562 22.242 220.25 23.126C219.938 24.01 219.496 24.764 218.924 25.388C218.352 26.012 217.659 26.4973 216.844 26.844C216.047 27.1907 215.163 27.364 214.192 27.364C213.221 27.364 212.337 27.1907 211.54 26.844C210.743 26.4973 210.058 26.012 209.486 25.388C208.914 24.764 208.463 24.01 208.134 23.126C207.822 22.242 207.666 21.2627 207.666 20.188C207.666 19.1133 207.822 18.1427 208.134 17.276C208.463 16.392 208.914 15.638 209.486 15.014C210.075 14.39 210.769 13.9133 211.566 13.584C212.363 13.2373 213.239 13.064 214.192 13.064C215.145 13.064 216.021 13.2373 216.818 13.584C217.633 13.9133 218.326 14.39 218.898 15.014C219.47 15.638 219.912 16.392 220.224 17.276C220.553 18.1427 220.718 19.1133 220.718 20.188ZM217.494 20.188C217.494 18.836 217.199 17.77 216.61 16.99C216.038 16.1927 215.232 15.794 214.192 15.794C213.152 15.794 212.337 16.1927 211.748 16.99C211.176 17.77 210.89 18.836 210.89 20.188C210.89 21.5573 211.176 22.6407 211.748 23.438C212.337 24.2353 213.152 24.634 214.192 24.634C215.232 24.634 216.038 24.2353 216.61 23.438C217.199 22.6407 217.494 21.5573 217.494 20.188ZM235.113 26.584C234.506 26.74 233.718 26.896 232.747 27.052C231.776 27.2253 230.71 27.312 229.549 27.312C228.457 27.312 227.538 27.156 226.793 26.844C226.065 26.532 225.476 26.0987 225.025 25.544C224.592 24.9893 224.28 24.3307 224.089 23.568C223.898 22.788 223.803 21.9387 223.803 21.02V13.402H226.949V20.526C226.949 21.982 227.157 23.022 227.573 23.646C228.006 24.27 228.752 24.582 229.809 24.582C230.19 24.582 230.589 24.5647 231.005 24.53C231.438 24.4953 231.759 24.452 231.967 24.4V13.402H235.113V26.584ZM248.139 20.266C248.139 18.862 247.819 17.77 247.177 16.99C246.553 16.21 245.539 15.82 244.135 15.82C243.841 15.82 243.529 15.8373 243.199 15.872C242.887 15.8893 242.575 15.9413 242.263 16.028V23.802C242.541 23.9927 242.905 24.1747 243.355 24.348C243.823 24.504 244.317 24.582 244.837 24.582C245.981 24.582 246.813 24.192 247.333 23.412C247.871 22.632 248.139 21.5833 248.139 20.266ZM251.363 20.214C251.363 21.254 251.225 22.2073 250.947 23.074C250.687 23.9407 250.306 24.686 249.803 25.31C249.301 25.934 248.668 26.4193 247.905 26.766C247.16 27.1127 246.311 27.286 245.357 27.286C244.716 27.286 244.127 27.208 243.589 27.052C243.052 26.896 242.61 26.7227 242.263 26.532V31.81H239.117V13.844C239.759 13.6707 240.547 13.506 241.483 13.35C242.419 13.194 243.407 13.116 244.447 13.116C245.522 13.116 246.484 13.2807 247.333 13.61C248.183 13.9393 248.902 14.416 249.491 15.04C250.098 15.6467 250.557 16.392 250.869 17.276C251.199 18.1427 251.363 19.122 251.363 20.214Z" fill="black"/>
<defs>
<clipPath id="clip0_1321_12088">
<rect width="30" height="30" fill="white" transform="translate(58 2)"/>
</clipPath>
</defs>
</svg>
