<?xml version="1.0" encoding="utf-8"?><!-- Uploaded to: SVG Repo, www.svgrepo.com, Generator: SVG Repo Mixer Tools -->
<svg fill="#000000" width="800px" height="800px" viewBox="0 0 1024 1024" xmlns="http://www.w3.org/2000/svg"><path d="M859.136 720.128c28.277 0 51.2-22.923 51.2-51.2V519.772c0-28.277-22.923-51.2-51.2-51.2H163.84c-28.277 0-51.2 22.923-51.2 51.2v149.156c0 28.277 22.923 51.2 51.2 51.2h695.296zm0 40.96H163.84c-50.899 0-92.16-41.261-92.16-92.16V519.772c0-50.899 41.261-92.16 92.16-92.16h695.296c50.899 0 92.16 41.261 92.16 92.16v149.156c0 50.899-41.261 92.16-92.16 92.16zm-598.699 41.654v62.648c0 24.112-19.291 43.581-42.998 43.581h-6.164c-23.707 0-42.998-19.469-42.998-43.581v-62.915c0-11.311-9.169-20.48-20.48-20.48s-20.48 9.169-20.48 20.48v62.915c0 46.65 37.544 84.541 83.958 84.541h6.164c46.413 0 83.958-37.892 83.958-84.541v-62.648c0-11.311-9.169-20.48-20.48-20.48s-20.48 9.169-20.48 20.48zm593.92 0v62.648c0 24.112-19.291 43.581-42.998 43.581h-6.164c-23.707 0-42.998-19.469-42.998-43.581v-62.915c0-11.311-9.169-20.48-20.48-20.48s-20.48 9.169-20.48 20.48v62.915c0 46.65 37.544 84.541 83.958 84.541h6.164c46.413 0 83.958-37.892 83.958-84.541v-62.648c0-11.311-9.169-20.48-20.48-20.48s-20.48 9.169-20.48 20.48z"/><path d="M308.224 594.348c0 31.109-25.211 56.32-56.32 56.32s-56.32-25.211-56.32-56.32 25.211-56.32 56.32-56.32 56.32 25.211 56.32 56.32zm519.168 0c0 31.109-25.211 56.32-56.32 56.32s-56.32-25.211-56.32-56.32 25.211-56.32 56.32-56.32 56.32 25.211 56.32 56.32zm-419.072 20.48h204.8c11.311 0 20.48-9.169 20.48-20.48s-9.169-20.48-20.48-20.48h-204.8c-11.311 0-20.48 9.169-20.48 20.48s9.169 20.48 20.48 20.48zm371.968-420.27c0-45.245-36.675-81.92-81.92-81.92h-373.76c-45.245 0-81.92 36.675-81.92 81.92V428.03h537.6V194.558zM201.728 468.99V194.558c0-67.866 55.014-122.88 122.88-122.88h373.76c67.866 0 122.88 55.014 122.88 122.88V468.99h-619.52z"/></svg>