<?xml version="1.0" encoding="UTF-8"?>
<svg xmlns="http://www.w3.org/2000/svg" xmlns:xlink="http://www.w3.org/1999/xlink" width="193pt" height="193pt" viewBox="0 0 193 193" version="1.1">
<g id="surface1">
<path style=" stroke:none;fill-rule:evenodd;fill:rgb(100%,100%,100%);fill-opacity:1;" d="M 0 0.242188 L 192.757813 0.242188 L 192.757813 193 L 0 193 L 0 0.242188 "/>
<path style=" stroke:none;fill-rule:evenodd;fill:rgb(0%,37.646484%,68.234253%);fill-opacity:1;" d="M 45.960938 112 L 45.960938 112.785156 L 43.800781 112.785156 L 43.800781 117.128906 L 42.730469 117.128906 L 42.730469 112 Z M 107.511719 82.03125 C 113.628906 82.03125 118.699219 87.164063 118.699219 93.875 C 118.699219 100.589844 113.628906 105.726563 107.511719 105.726563 C 101.394531 105.726563 96.320313 100.589844 96.320313 93.875 C 96.320313 87.164063 101.394531 82.03125 107.511719 82.03125 Z M 107.511719 104.011719 C 111.714844 104.011719 113.328125 99.21875 113.328125 93.875 C 113.328125 88.535156 111.714844 83.742188 107.511719 83.742188 C 103.304688 83.742188 101.691406 88.535156 101.691406 93.875 C 101.691406 99.21875 103.304688 104.011719 107.511719 104.011719 Z M 65.375 82.03125 C 71.488281 82.03125 76.558594 87.164063 76.558594 93.875 C 76.558594 100.589844 71.488281 105.726563 65.375 105.726563 C 59.320313 105.726563 54.289063 100.695313 54.1875 94.082031 L 50.082031 94.082031 L 50.082031 103.398438 L 52.75 103.398438 L 52.75 105.3125 L 42.511719 105.3125 L 42.511719 103.398438 L 45.179688 103.398438 L 45.179688 84.324219 L 42.511719 84.324219 L 42.511719 82.40625 L 52.75 82.40625 L 52.75 84.324219 L 50.082031 84.324219 L 50.082031 92.164063 L 54.296875 92.164063 C 55.074219 86.3125 59.789063 82.03125 65.375 82.03125 Z M 65.375 104.011719 C 69.578125 104.011719 71.191406 99.21875 71.191406 93.875 C 71.191406 88.535156 69.578125 83.742188 65.375 83.742188 C 61.164063 83.742188 59.554688 88.535156 59.554688 93.875 C 59.554688 99.21875 61.164063 104.011719 65.375 104.011719 Z M 188.648438 103.398438 L 191.316406 103.398438 L 191.316406 105.3125 L 181.078125 105.3125 L 181.078125 103.398438 L 183.746094 103.398438 L 183.746094 96.070313 C 181.320313 95.796875 180.804688 96.683594 180.085938 98.125 L 177.105469 103.910156 C 176.214844 105.660156 174.125 105.726563 173.574219 105.726563 C 172.171875 105.726563 170.53125 105.523438 169.503906 105.3125 L 169.503906 103.46875 C 171.726563 103.363281 172.035156 102.851563 173.132813 100.96875 L 175.257813 97.265625 C 176.078125 95.863281 176.761719 95.382813 177.6875 95.246094 L 177.6875 95.042969 C 173.816406 94.1875 172.207031 91.6875 172.207031 89.050781 C 172.207031 85.519531 175.1875 82.40625 180.460938 82.40625 L 191.316406 82.40625 L 191.316406 84.324219 L 188.648438 84.324219 Z M 181.832031 84.324219 C 179.261719 84.324219 177.484375 86.34375 177.484375 89.394531 C 177.484375 92.507813 178.886719 94.527344 183.746094 94.253906 L 183.746094 84.324219 Z M 159.433594 85.210938 L 159.433594 84.324219 L 156.761719 84.324219 L 156.761719 82.40625 L 167.003906 82.40625 L 167.003906 84.324219 L 164.328125 84.324219 L 164.328125 103.398438 L 167.003906 103.398438 L 167.003906 105.3125 L 156.761719 105.3125 L 156.761719 103.398438 L 159.433594 103.398438 L 159.433594 88.398438 L 149.191406 102.164063 L 149.191406 103.398438 L 151.863281 103.398438 L 151.863281 105.3125 L 141.625 105.3125 L 141.625 103.398438 L 144.296875 103.398438 L 144.296875 84.324219 L 141.625 84.324219 L 141.625 82.40625 L 151.863281 82.40625 L 151.863281 84.324219 L 149.191406 84.324219 L 149.191406 98.945313 Z M 128.1875 103.398438 L 130.925781 103.398438 L 130.925781 105.3125 L 120.617188 105.3125 L 120.617188 103.398438 L 123.289063 103.398438 L 123.289063 84.324219 L 120.617188 84.324219 L 120.617188 82.40625 L 129.179688 82.40625 C 132.878906 82.40625 135.996094 82.679688 137.910156 85.519531 C 138.667969 86.617188 139.042969 87.988281 139.042969 89.320313 C 139.042969 90.726563 138.667969 92.132813 137.878906 93.292969 C 135.957031 96.101563 132.605469 96.683594 128.1875 96.550781 Z M 128.1875 94.835938 C 131.234375 95.078125 132.980469 93.914063 133.804688 91.859375 C 134.109375 91.066406 134.246094 90.25 134.246094 89.425781 C 134.246094 88.464844 134.109375 87.507813 133.664063 86.6875 C 133.015625 85.488281 131.511719 84.117188 128.1875 84.324219 Z M 81.273438 103.398438 L 81.273438 84.324219 L 78.601563 84.324219 L 78.601563 82.40625 L 95.828125 82.40625 L 95.828125 87.027344 L 93.601563 87.027344 L 93.601563 84.664063 L 86.171875 84.664063 L 86.171875 103.398438 L 89.117188 103.398438 L 89.117188 105.3125 L 78.601563 105.3125 L 78.601563 103.398438 Z M 18.429688 76.640625 L 20.167969 74.933594 C 20.320313 74.78125 20.09375 74.605469 19.882813 74.457031 L 18.800781 73.714844 C 18.613281 73.589844 18.542969 73.414063 18.707031 73.246094 L 19.167969 72.765625 C 19.355469 72.570313 19.570313 72.660156 19.789063 72.792969 L 20.925781 73.46875 C 21.203125 73.636719 21.355469 73.570313 21.507813 73.4375 L 22.539063 72.542969 C 22.8125 72.296875 23.105469 72.195313 23.429688 72.210938 L 24.082031 72.214844 C 24.453125 72.214844 24.601563 72.460938 24.230469 72.828125 L 20.527344 76.464844 C 20.4375 76.546875 20.421875 76.695313 20.542969 76.695313 L 21.84375 76.695313 C 22.027344 76.695313 22.199219 76.640625 22.34375 76.5 L 26.597656 72.320313 C 26.707031 72.210938 26.847656 72.183594 27.03125 72.1875 L 28.125 72.210938 C 28.4375 72.214844 28.3125 72.589844 28.132813 72.773438 L 23.019531 77.863281 L 17.796875 77.859375 L 12.570313 77.859375 L 7.457031 72.769531 C 7.273438 72.585938 7.152344 72.214844 7.464844 72.207031 L 8.554688 72.183594 C 8.738281 72.179688 8.878906 72.210938 8.992188 72.316406 L 13.246094 76.496094 C 13.382813 76.636719 13.5625 76.691406 13.742188 76.691406 L 15.042969 76.691406 C 15.164063 76.691406 15.148438 76.542969 15.0625 76.457031 L 11.355469 72.824219 C 10.984375 72.457031 11.136719 72.210938 11.503906 72.210938 L 12.160156 72.210938 C 12.484375 72.191406 12.773438 72.296875 13.046875 72.539063 L 14.082031 73.433594 C 14.234375 73.566406 14.382813 73.632813 14.660156 73.464844 L 15.796875 72.785156 C 16.015625 72.65625 16.230469 72.566406 16.417969 72.761719 L 16.882813 73.242188 C 17.039063 73.410156 16.972656 73.582031 16.785156 73.710938 L 15.707031 74.453125 C 15.496094 74.597656 15.242188 74.753906 15.394531 74.90625 L 17.132813 76.609375 C 17.289063 76.765625 18.261719 76.804688 18.429688 76.640625 Z M 17.792969 68.355469 C 18.960938 68.355469 19.960938 68.601563 20.835938 69.34375 C 21.914063 70.25 22.765625 69.894531 23.425781 69.121094 C 23.941406 68.519531 25.609375 68.652344 26.226563 69.5 C 27.175781 70.800781 28.648438 70.394531 29.667969 70.308594 C 31.023438 70.191406 32.105469 72.210938 31.042969 73.339844 L 24.917969 79.863281 L 17.792969 79.863281 L 10.667969 79.859375 L 4.542969 73.335938 C 3.484375 72.203125 4.570313 70.1875 5.917969 70.304688 C 6.9375 70.390625 8.414063 70.796875 9.359375 69.496094 C 9.976563 68.648438 11.648438 68.515625 12.164063 69.117188 C 12.820313 69.886719 13.671875 70.246094 14.75 69.339844 C 15.628906 68.597656 16.621094 68.355469 17.792969 68.355469 Z M 17.796875 69.648438 C 18.757813 69.648438 20.195313 70.078125 20.914063 70.683594 C 21.796875 71.429688 22.597656 71.371094 23.148438 70.75 C 24.003906 69.785156 25.167969 70.023438 25.675781 70.71875 C 26.457031 71.785156 27.675781 71.511719 28.503906 71.382813 C 30.101563 71.136719 30.78125 72.214844 29.445313 73.644531 C 27.777344 75.433594 26.1875 77.132813 24.515625 78.917969 L 17.875 78.9375 L 11.238281 78.910156 C 9.566406 77.128906 7.8125 75.429688 6.144531 73.640625 C 4.804688 72.214844 5.484375 71.132813 7.085938 71.378906 C 7.914063 71.507813 9.132813 71.78125 9.910156 70.714844 C 10.417969 70.019531 11.582031 69.78125 12.4375 70.746094 C 12.988281 71.367188 13.789063 71.425781 14.675781 70.679688 C 15.394531 70.074219 16.835938 69.648438 17.796875 69.648438 Z M 17.5625 99.5625 C 19.007813 99.5625 20.183594 100.40625 20.183594 101.433594 C 20.183594 102.464844 19.007813 103.304688 17.5625 103.304688 C 16.117188 103.304688 14.9375 102.464844 14.9375 101.433594 C 14.9375 100.40625 16.117188 99.5625 17.5625 99.5625 Z M 20.914063 102.171875 L 25.613281 102.109375 C 25.75 102.105469 25.835938 102.050781 25.839844 101.898438 L 25.847656 100.9375 C 25.847656 100.816406 25.769531 100.703125 25.632813 100.703125 L 20.929688 100.71875 C 20.738281 100.71875 20.664063 100.46875 20.816406 100.371094 L 23.195313 98.796875 C 23.390625 98.671875 23.433594 98.527344 23.3125 98.363281 L 22.730469 97.589844 C 22.632813 97.464844 22.503906 97.417969 22.355469 97.519531 L 19.816406 99.234375 C 19.675781 99.328125 19.492188 99.125 19.542969 99 L 20.386719 96.976563 C 20.417969 96.898438 20.421875 96.804688 20.347656 96.769531 L 19.070313 96.175781 C 18.953125 96.121094 18.824219 96.113281 18.765625 96.238281 L 17.6875 98.535156 C 17.644531 98.632813 17.5 98.621094 17.460938 98.535156 L 16.386719 96.242188 C 16.324219 96.117188 16.203125 96.125 16.082031 96.179688 L 14.800781 96.773438 C 14.730469 96.808594 14.734375 96.902344 14.765625 96.980469 L 15.605469 99.003906 C 15.65625 99.128906 15.472656 99.335938 15.332031 99.238281 L 12.796875 97.523438 C 12.644531 97.421875 12.515625 97.46875 12.421875 97.589844 L 11.835938 98.367188 C 11.71875 98.527344 11.761719 98.675781 11.953125 98.800781 L 14.332031 100.375 C 14.484375 100.472656 14.410156 100.722656 14.222656 100.722656 L 9.519531 100.707031 C 9.382813 100.707031 9.300781 100.820313 9.300781 100.941406 L 9.3125 101.902344 C 9.3125 102.054688 9.398438 102.109375 9.535156 102.113281 L 14.238281 102.171875 C 14.425781 102.171875 14.488281 102.402344 14.335938 102.5 L 11.957031 104.074219 C 11.769531 104.199219 11.71875 104.347656 11.84375 104.507813 L 12.425781 105.28125 C 12.519531 105.40625 12.648438 105.453125 12.800781 105.347656 L 15.335938 103.636719 C 15.476563 103.542969 15.664063 103.746094 15.609375 103.871094 L 14.769531 105.894531 C 14.734375 105.976563 14.734375 106.066406 14.808594 106.101563 L 16.082031 106.695313 C 16.203125 106.75 16.332031 106.757813 16.390625 106.632813 L 17.464844 104.335938 C 17.503906 104.253906 17.648438 104.242188 17.691406 104.335938 L 18.769531 106.636719 C 18.828125 106.761719 18.953125 106.753906 19.074219 106.699219 L 20.347656 106.101563 C 20.425781 106.070313 20.421875 105.976563 20.390625 105.898438 L 19.546875 103.875 C 19.496094 103.746094 19.679688 103.546875 19.824219 103.640625 L 22.359375 105.351563 C 22.507813 105.457031 22.640625 105.410156 22.734375 105.285156 L 23.316406 104.511719 C 23.4375 104.351563 23.390625 104.203125 23.203125 104.078125 L 20.820313 102.503906 C 20.671875 102.40625 20.722656 102.167969 20.914063 102.171875 Z M 3.011719 111.367188 C 6.886719 113.34375 10.671875 115.441406 14.71875 117.167969 C 16.289063 117.84375 17.554688 118.246094 19.234375 117.308594 C 21.820313 115.867188 25.265625 114.523438 28.34375 112.65625 C 30.152344 111.554688 29.035156 110.523438 27.144531 111.257813 C 21.679688 113.378906 15.753906 114.105469 16.90625 110.859375 C 17.226563 109.945313 19.773438 110.289063 21.757813 110.328125 C 24.75 110.386719 23.957031 108.425781 21.582031 108.445313 C 18.914063 108.460938 17.332031 107.285156 13.578125 107.285156 C 11.953125 107.285156 9.605469 109.332031 7.65625 107.667969 C 6.269531 106.480469 4.480469 105.144531 2.988281 103.949219 L 2.976563 83.503906 L 32.507813 83.503906 L 32.503906 91.605469 C 28.578125 89.613281 24.75 87.484375 20.660156 85.730469 C 19.089844 85.0625 17.820313 84.660156 16.144531 85.59375 C 13.558594 87.035156 10.109375 88.378906 7.035156 90.25 C 5.222656 91.347656 6.339844 92.378906 8.230469 91.644531 C 13.695313 89.527344 19.625 88.796875 18.472656 92.042969 C 18.148438 92.957031 15.601563 92.617188 13.617188 92.574219 C 10.625 92.515625 11.421875 94.476563 13.796875 94.457031 C 16.464844 94.441406 18.046875 95.617188 21.796875 95.617188 C 23.425781 95.617188 25.769531 93.570313 27.714844 95.234375 C 29.140625 96.449219 30.984375 97.824219 32.496094 99.039063 L 32.488281 110.921875 C 32.484375 117.800781 19.597656 117.714844 17.730469 122.300781 C 15.902344 117.816406 3.5625 117.800781 3.011719 111.367188 Z M 1.417969 81.792969 L 1.429688 112.144531 C 1.433594 119.761719 15.632813 119.8125 17.699219 124.890625 C 19.757813 119.8125 33.980469 119.761719 33.984375 112.144531 L 34 81.792969 Z M 191.339844 117.128906 L 190.269531 117.128906 L 190.269531 115.046875 L 189.664063 115.046875 L 188.675781 117.128906 L 187.605469 117.128906 L 188.726563 114.917969 C 188.402344 114.832031 188.179688 114.652344 188.046875 114.484375 C 187.777344 114.160156 187.75 113.800781 187.75 113.496094 C 187.75 113.203125 187.800781 112.808594 188.105469 112.46875 C 188.5 112.046875 189.078125 112 189.433594 112 L 191.339844 112 Z M 189.773438 112.785156 C 189.601563 112.785156 189.433594 112.785156 189.253906 112.867188 C 188.839844 113.035156 188.839844 113.441406 188.839844 113.546875 C 188.839844 113.953125 189.085938 114.128906 189.300781 114.199219 C 189.371094 114.21875 189.519531 114.257813 189.835938 114.257813 L 190.269531 114.257813 L 190.269531 112.785156 Z M 184.085938 112 L 184.085938 114.492188 C 184.085938 114.601563 184.074219 114.859375 184.046875 115.046875 C 184.074219 114.988281 184.230469 114.710938 184.292969 114.621094 L 185.691406 112.550781 L 185.691406 112 L 186.757813 112 L 186.757813 117.128906 L 185.691406 117.128906 L 185.691406 114.632813 C 185.691406 114.574219 185.691406 114.476563 185.734375 114.027344 C 185.585938 114.289063 185.578125 114.289063 185.488281 114.4375 L 184.085938 116.519531 L 184.085938 117.128906 L 183.015625 117.128906 L 183.015625 112 Z M 179.199219 112 L 179.199219 114.070313 L 180.652344 114.070313 L 180.652344 112 L 181.722656 112 L 181.722656 117.128906 L 180.652344 117.128906 L 180.652344 114.898438 L 179.199219 114.898438 L 179.199219 117.128906 L 178.132813 117.128906 L 178.132813 112 Z M 175.9375 112 L 177.410156 117.128906 L 176.328125 117.128906 L 175.988281 115.886719 L 174.539063 115.886719 L 174.199219 117.128906 L 173.191406 117.128906 L 174.789063 112 Z M 175.28125 113.054688 L 174.746094 115.097656 L 175.824219 115.097656 Z M 172.503906 112 L 172.503906 117.128906 L 171.433594 117.128906 L 171.433594 112.828125 L 169.980469 112.828125 L 169.980469 117.128906 L 168.910156 117.128906 L 168.910156 112 Z M 164.253906 112 L 165.148438 115.53125 L 166.089844 112 L 167.613281 112 L 167.613281 117.128906 L 166.617188 117.128906 L 166.617188 113.015625 L 165.476563 117.128906 L 164.703125 117.128906 L 163.601563 113.027344 L 163.601563 117.128906 L 162.707031 117.128906 L 162.707031 112 Z M 160.960938 112.40625 C 161.621094 113.027344 161.660156 114.140625 161.660156 114.5625 C 161.660156 114.976563 161.621094 116.113281 160.960938 116.734375 C 160.644531 117.03125 160.15625 117.226563 159.578125 117.226563 C 159.109375 117.226563 158.558594 117.074219 158.199219 116.746094 C 157.636719 116.234375 157.484375 115.253906 157.484375 114.5625 C 157.484375 113.695313 157.707031 112.847656 158.199219 112.394531 C 158.511719 112.105469 159.015625 111.910156 159.609375 111.910156 C 160.238281 111.910156 160.691406 112.15625 160.960938 112.40625 Z M 158.980469 112.957031 C 158.714844 113.273438 158.636719 113.835938 158.636719 114.59375 C 158.636719 114.75 158.636719 115.746094 158.976563 116.160156 C 159.089844 116.300781 159.269531 116.4375 159.578125 116.4375 C 159.878906 116.4375 160.0625 116.300781 160.167969 116.171875 C 160.429688 115.84375 160.507813 115.046875 160.507813 114.5625 C 160.507813 114.046875 160.457031 113.300781 160.167969 112.957031 C 160 112.757813 159.820313 112.699219 159.570313 112.699219 C 159.335938 112.699219 159.160156 112.757813 158.980469 112.957031 Z M 154.210938 114.117188 L 154.3125 114.117188 C 154.5 114.117188 154.742188 114.089844 154.933594 113.941406 C 155.09375 113.800781 155.15625 113.609375 155.1875 113.445313 C 155.21875 113.320313 155.230469 113.191406 155.238281 113.066406 C 155.25 112.914063 155.261719 112.769531 155.292969 112.621094 C 155.414063 112.046875 155.890625 111.96875 156.246094 111.96875 C 156.410156 111.96875 156.566406 111.976563 156.722656 112 L 156.722656 112.777344 C 156.605469 112.769531 156.453125 112.800781 156.371094 112.847656 C 156.246094 112.914063 156.226563 113.046875 156.203125 113.175781 C 156.15625 113.496094 156.15625 113.628906 156.113281 113.785156 C 156.03125 114.140625 155.847656 114.375 155.375 114.484375 L 155.375 114.503906 C 155.679688 114.5625 156.070313 114.75 156.226563 115.148438 C 156.289063 115.304688 156.308594 115.480469 156.339844 115.835938 C 156.351563 116.003906 156.371094 116.121094 156.433594 116.203125 C 156.492188 116.28125 156.605469 116.335938 156.832031 116.320313 L 156.832031 117.109375 C 156.671875 117.140625 156.464844 117.160156 156.289063 117.160156 C 156.101563 117.160156 155.878906 117.148438 155.6875 117.011719 C 155.507813 116.871094 155.433594 116.675781 155.390625 116.507813 C 155.351563 116.347656 155.339844 116.160156 155.300781 115.789063 C 155.269531 115.453125 155.261719 115.234375 155.015625 115.078125 C 154.871094 114.988281 154.613281 114.949219 154.449219 114.949219 L 154.210938 114.949219 L 154.210938 117.128906 L 153.140625 117.128906 L 153.140625 112 L 154.210938 112 Z M 149.449219 117.128906 L 148.378906 117.128906 L 148.378906 115.046875 L 147.769531 115.046875 L 146.785156 117.128906 L 145.710938 117.128906 L 146.835938 114.917969 C 146.515625 114.832031 146.289063 114.652344 146.15625 114.484375 C 145.890625 114.160156 145.855469 113.800781 145.855469 113.496094 C 145.855469 113.203125 145.90625 112.808594 146.214844 112.46875 C 146.609375 112.046875 147.1875 112 147.542969 112 L 149.449219 112 Z M 147.886719 112.785156 C 147.710938 112.785156 147.542969 112.785156 147.355469 112.867188 C 146.945313 113.035156 146.945313 113.441406 146.945313 113.546875 C 146.945313 113.953125 147.195313 114.128906 147.410156 114.199219 C 147.480469 114.21875 147.628906 114.257813 147.945313 114.257813 L 148.378906 114.257813 L 148.378906 112.785156 Z M 143.976563 112 L 145.445313 117.128906 L 144.363281 117.128906 L 144.023438 115.886719 L 142.574219 115.886719 L 142.238281 117.128906 L 141.226563 117.128906 L 142.824219 112 Z M 143.316406 113.054688 L 142.777344 115.097656 L 143.859375 115.097656 Z M 138.828125 112 C 139.304688 112 139.707031 112.019531 140.015625 112.199219 C 140.332031 112.386719 140.589844 112.785156 140.589844 113.351563 C 140.589844 114.082031 140.125 114.335938 139.910156 114.425781 C 140.035156 114.457031 140.199219 114.515625 140.371094 114.683594 C 140.691406 114.988281 140.765625 115.351563 140.765625 115.679688 C 140.765625 116.113281 140.652344 116.566406 140.117188 116.878906 C 139.707031 117.121094 139.261719 117.128906 138.851563 117.128906 L 137.109375 117.128906 L 137.109375 112 Z M 138.667969 114.070313 C 138.828125 114.070313 139.109375 114.046875 139.285156 113.921875 C 139.40625 113.835938 139.5 113.667969 139.5 113.402344 C 139.5 113.113281 139.382813 112.976563 139.292969 112.898438 C 139.109375 112.746094 138.890625 112.769531 138.75 112.769531 L 138.179688 112.769531 L 138.179688 114.070313 Z M 138.820313 116.363281 C 138.984375 116.363281 139.234375 116.320313 139.382813 116.222656 C 139.476563 116.160156 139.675781 115.984375 139.675781 115.601563 C 139.675781 115.316406 139.550781 115.085938 139.398438 114.976563 C 139.210938 114.847656 138.921875 114.839844 138.738281 114.839844 L 138.179688 114.839844 L 138.179688 116.363281 Z M 135.320313 112.40625 C 135.980469 113.027344 136.019531 114.140625 136.019531 114.5625 C 136.019531 114.976563 135.980469 116.113281 135.320313 116.734375 C 135 117.03125 134.523438 117.226563 133.941406 117.226563 C 133.472656 117.226563 132.925781 117.074219 132.566406 116.746094 C 132 116.234375 131.84375 115.253906 131.84375 114.5625 C 131.84375 113.695313 132.070313 112.847656 132.566406 112.394531 C 132.871094 112.105469 133.378906 111.910156 133.976563 111.910156 C 134.601563 111.910156 135.054688 112.15625 135.320313 112.40625 Z M 133.347656 112.957031 C 133.082031 113.273438 132.996094 113.835938 132.996094 114.59375 C 132.996094 114.75 132.996094 115.746094 133.335938 116.160156 C 133.449219 116.300781 133.636719 116.4375 133.941406 116.4375 C 134.242188 116.4375 134.425781 116.300781 134.527344 116.171875 C 134.796875 115.84375 134.867188 115.046875 134.867188 114.5625 C 134.867188 114.046875 134.816406 113.300781 134.527344 112.957031 C 134.367188 112.757813 134.179688 112.699219 133.933594 112.699219 C 133.695313 112.699219 133.523438 112.757813 133.347656 112.957031 Z M 128.820313 112 L 129.546875 113.496094 L 130.351563 112 L 131.359375 112 L 130.0625 114.335938 L 131.546875 117.128906 L 130.351563 117.128906 L 129.488281 115.304688 L 128.5 117.128906 L 127.480469 117.128906 L 128.976563 114.464844 L 127.648438 112 Z M 125.96875 112 L 127.441406 117.128906 L 126.363281 117.128906 L 126.023438 115.886719 L 124.570313 115.886719 L 124.230469 117.128906 L 123.222656 117.128906 L 124.816406 112 Z M 125.3125 113.054688 L 124.777344 115.097656 L 125.855469 115.097656 Z M 121.332031 112 C 121.910156 112 122.496094 112.019531 122.929688 112.429688 C 123.246094 112.738281 123.390625 113.203125 123.390625 113.617188 C 123.390625 114.046875 123.226563 114.425781 123.007813 114.660156 C 122.617188 115.085938 122.019531 115.175781 121.351563 115.175781 L 120.949219 115.175781 L 120.949219 117.128906 L 119.878906 117.128906 L 119.878906 112 Z M 120.949219 114.386719 L 121.332031 114.386719 C 121.609375 114.386719 121.917969 114.375 122.09375 114.117188 C 122.195313 113.972656 122.234375 113.714844 122.234375 113.566406 C 122.234375 113.421875 122.21875 113.007813 121.875 112.847656 C 121.734375 112.777344 121.558594 112.769531 121.332031 112.769531 L 120.949219 112.769531 Z M 119.222656 112 L 119.222656 112.828125 L 118.082031 112.828125 L 118.082031 117.128906 L 117.011719 117.128906 L 117.011719 112.828125 L 115.816406 112.828125 L 115.816406 112 Z M 115.578125 115.429688 C 115.476563 116.023438 115.335938 116.476563 114.941406 116.804688 C 114.625 117.082031 114.148438 117.226563 113.667969 117.226563 C 113.007813 117.226563 112.546875 116.960938 112.277344 116.714844 C 111.566406 116.035156 111.546875 114.800781 111.546875 114.523438 C 111.546875 113.351563 111.96875 112.679688 112.382813 112.34375 C 112.824219 111.976563 113.324219 111.910156 113.71875 111.910156 C 114.078125 111.910156 114.484375 111.96875 114.828125 112.226563 C 115.382813 112.628906 115.53125 113.34375 115.558594 113.734375 L 114.554688 113.863281 C 114.53125 113.628906 114.460938 113.175781 114.277344 112.945313 C 114.179688 112.839844 114.019531 112.699219 113.726563 112.699219 C 113.464844 112.699219 113.261719 112.816406 113.144531 112.933594 C 112.78125 113.277344 112.699219 113.910156 112.699219 114.535156 C 112.699219 115.414063 112.855469 115.855469 113.058594 116.121094 C 113.203125 116.320313 113.386719 116.4375 113.667969 116.4375 C 113.925781 116.4375 114.160156 116.335938 114.296875 116.171875 C 114.460938 115.972656 114.546875 115.570313 114.570313 115.316406 Z M 108.0625 117.128906 L 106.988281 117.128906 L 106.988281 115.046875 L 106.382813 115.046875 L 105.394531 117.128906 L 104.324219 117.128906 L 105.445313 114.917969 C 105.128906 114.832031 104.898438 114.652344 104.769531 114.484375 C 104.503906 114.160156 104.46875 113.800781 104.46875 113.496094 C 104.46875 113.203125 104.519531 112.808594 104.828125 112.46875 C 105.222656 112.046875 105.796875 112 106.15625 112 L 108.0625 112 Z M 106.496094 112.785156 C 106.320313 112.785156 106.15625 112.785156 105.972656 112.867188 C 105.5625 113.035156 105.5625 113.441406 105.5625 113.546875 C 105.5625 113.953125 105.808594 114.128906 106.023438 114.199219 C 106.097656 114.21875 106.242188 114.257813 106.558594 114.257813 L 106.988281 114.257813 L 106.988281 112.785156 Z M 102.589844 112 L 104.058594 117.128906 L 102.980469 117.128906 L 102.636719 115.886719 L 101.1875 115.886719 L 100.847656 117.128906 L 99.84375 117.128906 L 101.4375 112 Z M 101.925781 113.054688 L 101.394531 115.097656 L 102.472656 115.097656 Z M 96.632813 112 L 96.632813 114.070313 L 98.078125 114.070313 L 98.078125 112 L 99.152344 112 L 99.152344 117.128906 L 98.078125 117.128906 L 98.078125 114.898438 L 96.632813 114.898438 L 96.632813 117.128906 L 95.5625 117.128906 L 95.5625 112 Z M 91.746094 112 L 91.746094 114.070313 L 93.195313 114.070313 L 93.195313 112 L 94.265625 112 L 94.265625 117.128906 L 93.195313 117.128906 L 93.195313 114.898438 L 91.746094 114.898438 L 91.746094 117.128906 L 90.671875 117.128906 L 90.671875 112 Z M 89.707031 112 L 89.707031 112.785156 L 87.578125 112.785156 L 87.578125 114.101563 L 89.242188 114.101563 L 89.242188 114.890625 L 87.578125 114.890625 L 87.578125 116.335938 L 89.75 116.335938 L 89.75 117.128906 L 86.507813 117.128906 L 86.507813 112 Z M 83.503906 112 C 83.976563 112 84.378906 112.019531 84.6875 112.199219 C 85.007813 112.386719 85.261719 112.785156 85.261719 113.351563 C 85.261719 114.082031 84.796875 114.335938 84.582031 114.425781 C 84.707031 114.457031 84.871094 114.515625 85.046875 114.683594 C 85.367188 114.988281 85.4375 115.351563 85.4375 115.679688 C 85.4375 116.113281 85.324219 116.566406 84.789063 116.878906 C 84.378906 117.121094 83.933594 117.128906 83.523438 117.128906 L 81.789063 117.128906 L 81.789063 112 Z M 83.339844 114.070313 C 83.503906 114.070313 83.785156 114.046875 83.957031 113.921875 C 84.078125 113.835938 84.171875 113.667969 84.171875 113.402344 C 84.171875 113.113281 84.0625 112.976563 83.964844 112.898438 C 83.785156 112.746094 83.566406 112.769531 83.421875 112.769531 L 82.855469 112.769531 L 82.855469 114.070313 Z M 83.492188 116.363281 C 83.660156 116.363281 83.90625 116.320313 84.0625 116.222656 C 84.152344 116.160156 84.347656 115.984375 84.347656 115.601563 C 84.347656 115.316406 84.222656 115.085938 84.070313 114.976563 C 83.882813 114.847656 83.597656 114.839844 83.414063 114.839844 L 82.855469 114.839844 L 82.855469 116.363281 Z M 81.125 112 L 81.125 112.828125 L 79.988281 112.828125 L 79.988281 117.128906 L 78.914063 117.128906 L 78.914063 112.828125 L 77.726563 112.828125 L 77.726563 112 Z M 77.484375 115.429688 C 77.386719 116.023438 77.238281 116.476563 76.84375 116.804688 C 76.527344 117.082031 76.058594 117.226563 75.574219 117.226563 C 74.914063 117.226563 74.449219 116.960938 74.183594 116.714844 C 73.472656 116.035156 73.457031 114.800781 73.457031 114.523438 C 73.457031 113.351563 73.871094 112.679688 74.285156 112.34375 C 74.730469 111.976563 75.230469 111.910156 75.625 111.910156 C 75.980469 111.910156 76.382813 111.96875 76.734375 112.226563 C 77.289063 112.628906 77.433594 113.34375 77.460938 113.734375 L 76.460938 113.863281 C 76.441406 113.628906 76.367188 113.175781 76.179688 112.945313 C 76.085938 112.839844 75.921875 112.699219 75.632813 112.699219 C 75.367188 112.699219 75.171875 112.816406 75.046875 112.933594 C 74.683594 113.277344 74.605469 113.910156 74.605469 114.535156 C 74.605469 115.414063 74.757813 115.855469 74.964844 116.121094 C 75.109375 116.320313 75.292969 116.4375 75.574219 116.4375 C 75.832031 116.4375 76.066406 116.335938 76.199219 116.171875 C 76.367188 115.972656 76.445313 115.570313 76.476563 115.316406 Z M 70.746094 112 C 71.320313 112 71.914063 112.019531 72.339844 112.429688 C 72.65625 112.738281 72.804688 113.203125 72.804688 113.617188 C 72.804688 114.046875 72.640625 114.425781 72.425781 114.660156 C 72.03125 115.085938 71.433594 115.175781 70.769531 115.175781 L 70.367188 115.175781 L 70.367188 117.128906 L 69.296875 117.128906 L 69.296875 112 Z M 70.367188 114.386719 L 70.746094 114.386719 C 71.027344 114.386719 71.335938 114.375 71.507813 114.117188 C 71.613281 113.972656 71.652344 113.714844 71.652344 113.566406 C 71.652344 113.421875 71.632813 113.007813 71.292969 112.847656 C 71.148438 112.777344 70.972656 112.769531 70.746094 112.769531 L 70.367188 112.769531 Z M 67.105469 112 L 68.574219 117.128906 L 67.496094 117.128906 L 67.15625 115.886719 L 65.710938 115.886719 L 65.367188 117.128906 L 64.359375 117.128906 L 65.957031 112 Z M 66.445313 113.054688 L 65.914063 115.097656 L 66.992188 115.097656 Z M 63.683594 112 L 63.683594 116.335938 L 64.214844 116.335938 L 64.214844 118.351563 L 63.183594 118.351563 L 63.183594 117.128906 L 60.324219 117.128906 L 60.324219 118.351563 L 59.285156 118.351563 L 59.285156 116.335938 L 59.648438 116.335938 C 59.832031 116.082031 60.105469 115.628906 60.3125 114.859375 C 60.453125 114.375 60.542969 113.855469 60.574219 113.277344 C 60.613281 112.492188 60.613281 112.355469 60.613281 112.15625 L 60.625 112 Z M 61.578125 113.074219 C 61.5625 113.3125 61.5 113.984375 61.332031 114.703125 C 61.171875 115.402344 60.992188 115.875 60.734375 116.335938 L 62.609375 116.335938 L 62.609375 112.785156 L 61.597656 112.785156 Z M 56.476563 112 L 57.679688 114.710938 L 57.703125 114.710938 L 58.660156 112 L 59.625 112 L 58.269531 115.789063 C 58.144531 116.132813 57.929688 116.628906 57.640625 116.890625 C 57.433594 117.074219 57.113281 117.238281 56.632813 117.238281 C 56.394531 117.238281 56.167969 117.1875 56.097656 117.179688 L 56.097656 116.332031 C 56.230469 116.378906 56.34375 116.390625 56.5 116.390625 C 56.644531 116.390625 56.878906 116.367188 57.054688 116.242188 C 57.136719 116.183594 57.207031 116.082031 57.25 115.957031 L 55.386719 112 Z M 55.089844 115.429688 C 54.988281 116.023438 54.839844 116.476563 54.449219 116.804688 C 54.132813 117.082031 53.65625 117.226563 53.175781 117.226563 C 52.519531 117.226563 52.054688 116.960938 51.785156 116.714844 C 51.078125 116.035156 51.058594 114.800781 51.058594 114.523438 C 51.058594 113.351563 51.480469 112.679688 51.890625 112.34375 C 52.335938 111.976563 52.839844 111.910156 53.226563 111.910156 C 53.589844 111.910156 53.992188 111.96875 54.339844 112.226563 C 54.894531 112.628906 55.035156 113.34375 55.070313 113.734375 L 54.0625 113.863281 C 54.039063 113.628906 53.96875 113.175781 53.785156 112.945313 C 53.695313 112.839844 53.527344 112.699219 53.234375 112.699219 C 52.972656 112.699219 52.773438 112.816406 52.648438 112.933594 C 52.292969 113.277344 52.210938 113.910156 52.210938 114.535156 C 52.210938 115.414063 52.363281 115.855469 52.570313 116.121094 C 52.710938 116.320313 52.898438 116.4375 53.175781 116.4375 C 53.433594 116.4375 53.667969 116.335938 53.804688 116.171875 C 53.96875 115.972656 54.050781 115.570313 54.082031 115.316406 Z M 49.472656 112.40625 C 50.132813 113.027344 50.171875 114.140625 50.171875 114.5625 C 50.171875 114.976563 50.132813 116.113281 49.472656 116.734375 C 49.152344 117.03125 48.671875 117.226563 48.09375 117.226563 C 47.621094 117.226563 47.074219 117.074219 46.722656 116.746094 C 46.152344 116.234375 45.996094 115.253906 45.996094 114.5625 C 45.996094 113.695313 46.222656 112.847656 46.722656 112.394531 C 47.023438 112.105469 47.527344 111.910156 48.128906 111.910156 C 48.753906 111.910156 49.203125 112.15625 49.472656 112.40625 Z M 47.496094 112.957031 C 47.230469 113.273438 47.148438 113.835938 47.148438 114.59375 C 47.148438 114.75 47.148438 115.746094 47.488281 116.160156 C 47.601563 116.300781 47.785156 116.4375 48.09375 116.4375 C 48.394531 116.4375 48.578125 116.300781 48.679688 116.171875 C 48.949219 115.84375 49.019531 115.046875 49.019531 114.5625 C 49.019531 114.046875 48.96875 113.300781 48.679688 112.957031 C 48.515625 112.757813 48.332031 112.699219 48.085938 112.699219 C 47.847656 112.699219 47.671875 112.757813 47.496094 112.957031 "/>
</g>
</svg>
