<svg xmlns="http://www.w3.org/2000/svg" width="87" height="24" fill="none" viewBox="0 0 87 24"><mask id="a" width="24" height="24" x="0" y="0" maskUnits="userSpaceOnUse" style="mask-type:alpha"><path fill="#299400" d="M18.0408 23.9889c.5303-.0111 1.0643-.0445 1.5871-.1371.5303-.0964 1.0272-.2446 1.5093-.4929.4784-.2372.9122-.5522 1.2868-.9228.3745-.3706.6934-.8005.9308-1.2712.2447-.4781.4005-.9635.4969-1.4898.0964-.5188.1261-1.0451.1372-1.5713.0074-.2409.0074-.4818.0111-.7227V6.6152c0-.24089 0-.48178-.0111-.72267-.0111-.52255-.0445-1.0525-.1372-1.57134-.0964-.52625-.2522-1.01545-.4969-1.48981-.2411-.46696-.5563-.89685-.9308-1.27116-.3746-.3706-.8121-.685606-1.2868-.922789-.4858-.24089-.979-.396542-1.5093-.492897-.5228-.0926501-1.0568-.126004-1.5871-.13712202-.1001 0-.2003-.00370599-.3634-.00741198H6.99011L5.96663.011118C5.43634.022236 4.90235.0555899 4.37948.14824 3.8492.244595 3.35229.396541 2.87021.641137c-.47837.237183-.91224.552193-1.28677.922793-.37454.3706-.693452.80049-.930782 1.27115-.248455.47808-.400495.96356-.49691 1.48981-.1001238.51884-.12979 1.04509-.1446232 1.57134C.00370828 6.13712.00370828 6.37801 0 6.6189v10.7659c0 .2409.00370828.4818.0111248.7227.0111249.5225.0444994 1.0525.1372062 1.5713.096416.5263.252163 1.0155.49691 1.4898.241038.467.556239.8969.930779 1.2712.37454.3706.81211.6856 1.28677.9228.48579.2409.97899.3965 1.50927.4929.52287.0926 1.05686.126 1.58715.1371.10012 0 .20025.0037.36341.0074H16.4425l1.5909-.0074.0074-.0037Z"></path></mask><g mask="url(#a)"><path fill="#19AA1E" d="M0 0h24v24H0z"></path><path fill="#FFB919" fill-rule="evenodd" d="M0 0h24v7.875L0 4.125V0Z" clip-rule="evenodd"></path><path fill="#82D714" fill-rule="evenodd" d="m0 21.375 24-3.75V24H0v-2.625Z" clip-rule="evenodd"></path><path fill="#fff" fill-rule="evenodd" d="m0 3.65057 8.37739 1.30895C9.42023 4.29942 10.6609 3.9375 12 3.9375c1.8547 0 3.5206.6943 4.7336 1.91353.1531.15385.2975.31471.4328.48179L24 7.40055v.94887l-6.1397-.95931c.4561.87533.7022 1.8506.7022 2.84589 0 1.2858-.2876 2.5678-.8821 3.855l-.0181.039-.2525.541h-.5971c-1.2329 0-2.0507.3688-2.5854 1.0224-.4198.5132-.6626 1.205-.7443 1.9598l-.0025.0236-.0119.1206-.0051.0525-.0097.1026c-.0313.337-.0522.6228-.0628.8557L24 17.1506v.9488l-24 3.75v-.9488l10.6209-1.6596-.0046-.213-.0014-.0601-.0009-.0308-.0017-.0475c-.0095-.2583-.0332-.5894-.0711-.9907l-.0073-.0761-.013-.1318c-.0762-.7588-.3154-1.4594-.73409-1.9802-.52909-.658-1.33937-1.0322-2.56235-1.0397l-.03719-.0001h-.59705l-.25249-.541c-.60678-1.3003-.90023-2.5952-.90023-3.894 0-1.63332.66263-3.21271 1.8289-4.38497.03367-.03384.06768-.06728.10204-.10031L0 4.59942v-.94885Z" clip-rule="evenodd"></path><path fill="#0073FA" fill-rule="evenodd" d="M12 4.875c3.3506 0 5.625 2.57897 5.625 5.361 0 1.1169-.2437 2.2791-.8123 3.4975-3.297 0-4.1108 2.3612-4.2647 3.8468l-.0098.099c-.0522.5302-.0823.9556-.0906 1.2763l-.893.1396-.0002-.0289c-.0034-.3362-.0352-.8078-.0953-1.4148l-.0026-.0265c-.1422-1.4824-.9389-3.8915-4.26923-3.8915-.56859-1.2184-.81227-2.3806-.81227-3.4975 0-2.78203 2.27437-5.361 5.625-5.361Z" clip-rule="evenodd"></path></g><path fill="#262626" fill-rule="evenodd" d="M35.234 4c-3.8621 0-6.7586 2.30303-6.7338 6.303h3.5897c-.0495-1.59997.9902-3.15148 3.1441-3.15148 1.6339 0 2.6737 1.06666 2.6737 2.42424 0 1.40604-1.1388 2.18184-2.9708 3.05454-2.4014 1.1394-3.8373 1.6727-6.4367 2.5212v4.6061h12.8734v-3.1515h-8.0211c1.2409-.5066 2.4487-1.0628 3.5401-1.5758 2.8966-1.3576 4.6048-2.8848 4.6048-5.62424C41.4974 6.10909 38.9722 4 35.234 4Zm11.8336 3.39394h7.427V4.24242H43.6017V19.7576h3.4659V7.39394Zm12.6259-3.15152h-3.466V19.7576h3.4412l6.4615-9.91518v9.91518h3.4659V4.24242h-3.4659l-6.4367 9.91518V4.24242ZM87 13.9394h-3.5897c-.5446 1.7212-2.2033 2.9091-4.1591 2.9091-2.847 0-4.7038-2.4-4.7038-4.8485 0-2.44848 1.8073-4.84848 4.8028-4.84848 1.9805 0 3.5155 1.18787 4.0601 2.90908H87C86.4801 6.59394 83.6826 4 79.2512 4c-4.9018 0-8.1697 3.3697-8.1697 8s3.2679 8 8.1697 8c4.4314 0 7.2289-2.5455 7.7488-6.0606Z" clip-rule="evenodd"></path></svg>
