<svg width="152" height="40" viewBox="0 0 152 40" fill="none" xmlns="http://www.w3.org/2000/svg">
<path d="M17.1996 1.57129H17.1941C15.7586 1.57329 14.5917 2.71929 14.5938 4.12596C14.5965 5.52662 15.7654 6.66795 17.1989 6.66795C18.6371 6.66529 19.8081 5.51929 19.8061 4.11462C19.8033 2.71262 18.6337 1.57129 17.1996 1.57129Z" fill="#00B9BF"/>
<path d="M17.1996 28.6433H17.1941C15.7586 28.6453 14.5917 29.7906 14.5938 31.1973C14.5965 32.5986 15.7654 33.74 17.1989 33.74C18.6371 33.7373 19.8081 32.592 19.8061 31.186C19.8033 29.7846 18.6337 28.6433 17.1996 28.6433Z" fill="#00B9BF"/>
<path d="M27.0337 4.76196H27.0255C25.0931 4.7653 23.522 6.3073 23.5254 8.20063C23.5288 10.09 25.102 11.626 27.0323 11.626C28.9708 11.6226 30.546 10.0806 30.5433 8.1873C30.5406 6.29863 28.9647 4.76196 27.0337 4.76196Z" fill="#00B9BF"/>
<path d="M27.0337 23.6914H27.0255C25.0931 23.6941 23.522 25.2374 23.5254 27.1307C23.5288 29.0194 25.102 30.5554 27.0323 30.5554C28.9708 30.5527 30.546 29.0094 30.5433 27.1167C30.5406 25.2281 28.9647 23.6914 27.0337 23.6914Z" fill="#00B9BF"/>
<path d="M4.86469 17.5966C4.86469 18.4279 4.17626 19.1019 3.3256 19.1019C2.47495 19.1019 1.78516 18.4279 1.78516 17.5966C1.78516 16.7646 2.47495 16.0906 3.3256 16.0906C4.17626 16.0906 4.86469 16.7646 4.86469 17.5966Z" fill="#00B9BF"/>
<path d="M9.14923 8.19456C9.14923 9.20989 8.30744 10.0339 7.26866 10.0339C6.22919 10.0339 5.38672 9.20989 5.38672 8.19456C5.38672 7.17856 6.22919 6.35522 7.26866 6.35522C8.30744 6.35522 9.14923 7.17856 9.14923 8.19456Z" fill="#00B9BF"/>
<path d="M9.14923 27.1233C9.14923 28.1386 8.30744 28.9626 7.26866 28.9626C6.22919 28.9626 5.38672 28.1386 5.38672 27.1233C5.38672 26.1079 6.22919 25.2839 7.26866 25.2839C8.30744 25.2839 9.14923 26.1079 9.14923 27.1233Z" fill="#00B9BF"/>
<path d="M31.0187 13.084H31.0085C28.4681 13.0887 26.4035 15.1167 26.4063 17.6053C26.4117 20.0873 28.4797 22.108 31.0174 22.108C33.5659 22.1027 35.6374 20.0747 35.6339 17.586C35.6292 15.1033 33.5584 13.084 31.0187 13.084Z" fill="#00B9BF"/>
<path d="M104.98 8.93945C101.43 8.93945 96.0605 10.6788 96.0605 17.4601C96.0605 24.2428 101.913 25.9228 104.98 25.9228C108.048 25.9228 113.903 24.2428 113.903 17.4601C113.903 10.6788 108.531 8.93945 104.98 8.93945ZM109.41 17.4308C109.41 21.8295 106.846 22.9188 104.985 22.9188C103.123 22.9188 100.556 21.8295 100.555 17.4308C100.555 13.0321 103.273 11.9428 104.98 11.9428C106.688 11.9428 109.41 13.0321 109.41 17.4308Z" fill="#00B9BF"/>
<path d="M89.0328 16.7548L95.9451 9.11743H90.9236L84.5867 16.1854V4.19009C84.5867 3.10809 83.9084 1.55076 81.2168 1.58276C80.9216 1.58609 80.5972 1.60476 80.2598 1.65409V25.7081H84.5867V17.2981L91.4226 25.7108H96.3513L89.0328 16.7548Z" fill="#00B9BF"/>
<path d="M125.696 8.95527C123.089 8.95527 121.518 9.85994 120.831 10.3786V10.3719C120.739 10.4313 120.649 10.4906 120.558 10.5526C120.144 9.74661 119.236 8.93994 117.362 8.93994C117.058 8.93994 116.724 8.96194 116.377 9.01061V25.7253H120.831V13.2053C122.013 12.0913 125.299 11.5039 126.795 13.0086C127.64 13.8566 127.808 15.0539 127.808 16.1746V25.7253H132.262V15.3533C132.262 11.0986 128.906 8.95527 125.696 8.95527Z" fill="#00B9BF"/>
<path d="M53.0141 8.92261C48.7418 8.92261 45.699 10.8959 45.699 10.8959L47.0404 13.2526C49.0539 12.1719 52.0408 11.6186 53.8695 12.0226C55.2123 12.3193 55.7794 13.2159 56.0664 14.0533C56.2157 14.4893 56.1823 15.8686 56.1823 15.8686V15.4233C53.8096 14.9006 44.8613 13.7606 44.8613 20.6873C44.8613 23.2673 46.5408 25.3593 50.1697 25.8166C52.3495 26.0906 54.3685 25.6479 56.1823 24.4733C56.2729 24.4146 56.3643 24.3553 56.4542 24.2926C56.868 25.0986 57.7759 25.9059 59.6503 25.9059C59.955 25.9059 60.2883 25.8833 60.6359 25.8339V14.6019C60.6359 10.0173 55.8544 8.92261 53.0141 8.92261ZM56.1823 17.9426V21.6393C54.4264 22.7139 52.9248 22.9019 52.0517 22.9019C51.0347 22.9019 49.2673 22.5153 49.161 20.4279C48.9742 16.7619 53.7796 17.3119 56.1823 17.8193V17.9426Z" fill="#00B9BF"/>
<path d="M69.1187 15.0659C67.4085 14.4986 67.2919 13.8286 67.4528 13.1439C67.9163 11.1653 72.7115 11.8299 75.3732 13.1453L76.6866 10.7719C75.2587 9.85794 72.7176 8.92261 69.9291 8.92261C67.5053 8.92261 65.2907 9.51394 64.0597 11.3253C62.8839 13.0546 63.0578 15.6739 65.0583 17.0833C66.5844 18.1586 69.4302 18.9579 71.4382 19.3773C72.6753 19.6353 73.7114 20.1553 73.3951 21.5006C73.0434 22.9953 69.5358 24.1346 64.7938 20.5586L63.1055 22.6993C63.1055 22.6993 65.7317 25.6619 70.0702 25.9046C74.528 26.1546 77.8188 23.7766 77.5966 20.5099C77.3274 16.5406 73.2356 16.4313 69.1187 15.0659Z" fill="#00B9BF"/>
<path d="M142.752 8.92261C138.481 8.92261 135.437 10.8959 135.437 10.8959L136.779 13.2526C138.792 12.1719 141.78 11.6186 143.608 12.0226C144.951 12.3193 145.518 13.2159 145.805 14.0533C145.954 14.4893 145.921 15.8686 145.921 15.8686V15.4233C143.548 14.9006 134.6 13.7606 134.6 20.6873C134.6 23.2673 136.279 25.3593 139.908 25.8166C142.088 26.0906 144.107 25.6479 145.921 24.4733C146.012 24.4146 146.103 24.3553 146.193 24.2926C146.606 25.0986 147.514 25.9059 149.389 25.9059C149.693 25.9059 150.027 25.8833 150.374 25.8339V14.6019C150.374 10.0173 145.593 8.92261 142.752 8.92261ZM145.921 17.9426V21.6393C144.165 22.7139 142.664 22.9019 141.791 22.9019C140.774 22.9019 139.006 22.5153 138.899 20.4279C138.713 16.7619 143.519 17.3119 145.921 17.8193V17.9426Z" fill="#00B9BF"/>
<path d="M68.1722 37.1386C67.6931 36.66 67.4531 36.0786 67.4531 35.3746C67.4531 34.672 67.6931 34.0906 68.1722 33.6213C68.6521 33.1426 69.256 32.908 69.9758 32.908C70.9246 32.908 71.7207 33.3866 72.0949 34.1373L71.3949 34.5313C71.155 34.034 70.6179 33.706 69.9758 33.706C69.4959 33.706 69.0931 33.8653 68.7673 34.184C68.4503 34.5033 68.2874 34.8973 68.2874 35.3746C68.2874 35.8446 68.4503 36.238 68.7673 36.5573C69.0931 36.876 69.4959 37.036 69.9758 37.036C70.6179 37.036 71.155 36.7166 71.4235 36.2193L72.1331 36.6233C71.7207 37.364 70.9055 37.8426 69.9758 37.8426C69.256 37.8426 68.6521 37.608 68.1722 37.1386Z" fill="#00B9BF"/>
<path d="M77.3106 33.0308V37.7201H76.4763V33.8088H73.9925V37.7201H73.1582V33.0308H77.3106Z" fill="#00B9BF"/>
<path d="M82.2505 33.0308H82.9219V37.7201H82.0972V34.4281L79.4402 37.7201H78.7695V33.0308H79.5943V36.3228L82.2505 33.0308Z" fill="#00B9BF"/>
<path d="M87.9465 33.0308V33.8188H86.3161V37.7201H85.4818V33.8188H83.8418V33.0308H87.9465Z" fill="#00B9BF"/>
<path d="M89.2596 35.7507C89.4225 36.5854 90.0844 37.0734 90.995 37.0734C91.6282 37.0734 92.0883 36.848 92.3767 36.388L93.0862 36.7827C92.6159 37.486 91.9159 37.8427 90.9766 37.8427C90.2187 37.8427 89.595 37.608 89.1158 37.1487C88.6462 36.6794 88.4062 36.088 88.4062 35.3754C88.4062 34.672 88.636 34.0807 89.1063 33.612C89.5759 33.1427 90.1805 32.9087 90.9187 32.9087C91.6187 32.9087 92.194 33.1527 92.6357 33.64C93.0862 34.1187 93.3064 34.7 93.3064 35.3854C93.3064 35.5067 93.2968 35.6287 93.2777 35.7507H89.2596ZM89.2596 35.038H92.4625C92.3187 34.1467 91.6862 33.678 90.9187 33.678C90.0265 33.678 89.4035 34.2127 89.2596 35.038Z" fill="#00B9BF"/>
<path d="M95.3213 36.7539L94.6976 39.0332H93.9785L94.3623 36.7539H95.3213Z" fill="#00B9BF"/>
<path d="M102.303 33.0308H103.137V37.7201H102.303V36.0321C101.919 36.1914 101.488 36.2761 101.008 36.2761C99.7801 36.2761 99.0801 35.7041 99.0801 34.5874V33.0308H99.9151V34.5408C99.9151 35.2441 100.308 35.5168 101.066 35.5168C101.516 35.5168 101.929 35.4321 102.303 35.2721V33.0308Z" fill="#00B9BF"/>
<path d="M108.161 33.0308V33.8188H106.531V37.7201H105.697V33.8188H104.057V33.0308H108.161Z" fill="#00B9BF"/>
<path d="M111.143 37.8427C110.443 37.8427 109.838 37.608 109.35 37.13C108.86 36.6514 108.621 36.07 108.621 35.3754C108.621 34.6814 108.86 34.1 109.35 33.6214C109.838 33.1427 110.443 32.9087 111.143 32.9087C111.843 32.9087 112.448 33.1427 112.936 33.6214C113.426 34.1 113.675 34.6814 113.675 35.3754C113.675 36.07 113.426 36.6514 112.936 37.13C112.448 37.608 111.844 37.8427 111.143 37.8427ZM112.352 36.5667C112.679 36.2474 112.841 35.854 112.841 35.3754C112.841 34.8974 112.679 34.5034 112.352 34.1847C112.026 33.8654 111.624 33.706 111.144 33.706C110.674 33.706 110.271 33.8654 109.945 34.1847C109.619 34.5034 109.456 34.8974 109.456 35.3754C109.456 35.854 109.619 36.2474 109.945 36.5667C110.271 36.886 110.674 37.0454 111.144 37.0454C111.624 37.0454 112.026 36.886 112.352 36.5667Z" fill="#00B9BF"/>
<path d="M115.276 37.158C114.816 36.6986 114.586 36.1166 114.586 35.394C114.586 34.5973 114.701 33.978 114.941 33.5466C115.18 33.1153 115.679 32.7213 116.417 32.374C116.552 32.3086 116.734 32.2333 116.964 32.13L117.482 31.9053C117.847 31.7266 118.259 31.4266 118.297 31.0046L118.969 31.38C118.931 31.5766 118.873 31.746 118.748 31.9053C118.633 32.0553 118.585 32.1486 118.365 32.2893C118.163 32.412 118.134 32.4486 117.856 32.5713C117.722 32.6366 117.626 32.674 117.578 32.702L117.261 32.834L116.955 32.9553C116.082 33.3213 115.746 33.6493 115.564 34.222C115.976 33.7253 116.638 33.49 117.252 33.49C117.856 33.49 118.365 33.6873 118.777 34.0906C119.199 34.494 119.41 35.01 119.41 35.6386C119.41 36.2766 119.19 36.8013 118.738 37.224C118.288 37.6366 117.722 37.8426 117.032 37.8426C116.322 37.8426 115.737 37.6173 115.276 37.158ZM117.06 34.2126C116.648 34.2126 116.283 34.344 115.948 34.5973C115.622 34.8506 115.458 35.1786 115.458 35.5913C115.458 36.0133 115.612 36.37 115.91 36.642C116.207 36.914 116.58 37.0546 117.032 37.0546C117.482 37.0546 117.847 36.9233 118.134 36.6513C118.432 36.3793 118.575 36.0413 118.575 35.6386C118.575 34.804 117.971 34.2126 117.06 34.2126Z" fill="#00B9BF"/>
<path d="M122.507 34.7194C122.987 34.7194 123.381 34.8594 123.697 35.1408C124.013 35.4134 124.177 35.7788 124.177 36.2201C124.177 36.6608 124.013 37.0261 123.697 37.3074C123.381 37.5801 122.987 37.7208 122.507 37.7208H120.484V33.0308H121.319V34.7194H122.507ZM122.507 36.9608C122.978 36.9608 123.352 36.6701 123.352 36.2201C123.352 35.7701 122.978 35.4701 122.507 35.4701H121.319V36.9608H122.507ZM124.8 33.0308H125.634V37.7201H124.8V33.0308Z" fill="#00B9BF"/>
<path d="M135.589 37.7206H134.61L132.817 35.4979V37.7206H131.992V35.4979L130.199 37.7206H129.23L131.234 35.3006L129.326 33.0312H130.294L131.992 35.1039V33.0312H132.817V35.1039L134.514 33.0312H135.492L133.574 35.3006L135.589 37.7206Z" fill="#00B9BF"/>
<path d="M140.057 33.0308H140.729V37.7201H139.904V34.4281L137.247 37.7201H136.576V33.0308H137.401V36.3228L140.057 33.0308Z" fill="#00B9BF"/>
<path d="M145.753 33.0308V33.8188H144.123V37.7201H143.288V33.8188H141.648V33.0308H145.753Z" fill="#00B9BF"/>
<path d="M148.698 34.7194C149.177 34.7194 149.57 34.8601 149.887 35.1414C150.203 35.4134 150.366 35.7794 150.366 36.2201C150.366 36.6608 150.203 37.0268 149.887 37.3081C149.57 37.5801 149.177 37.7208 148.698 37.7208H146.674V33.0308H147.508V34.7194H148.698ZM148.698 36.9608C149.167 36.9608 149.541 36.6701 149.541 36.2201C149.541 35.7701 149.167 35.4701 148.698 35.4701H147.508V36.9608H148.698Z" fill="#00B9BF"/>
</svg>
